<svg width="200" height="182" viewBox="0 0 200 182" fill="none" xmlns="http://www.w3.org/2000/svg">
<path d="M158.102 179.222H172.504V100.499H200V86.6067H130.607V100.499H158.102V179.222Z" fill="white"/>
<path d="M20.1122 57.2771H1.82812V79.4489H20.1122V57.2771Z" fill="white"/>
<path d="M159.071 57.2771H177.355V79.4489H159.071V57.2771Z" fill="white"/>
<path d="M1.82812 57.2772L89.5916 0V22.1718L20.1122 65.5917L1.82812 57.2772Z" fill="white"/>
<path d="M177.355 57.2772L89.5918 0V22.1718L159.071 65.5917L177.355 57.2772Z" fill="white"/>
<path d="M85.9347 48.0389H74.9642V59.1248H85.9347V48.0389Z" fill="white"/>
<path d="M85.9347 64.6679H74.9642V75.7538H85.9347V64.6679Z" fill="white"/>
<path d="M102.39 48.0389H91.4199V59.1248H102.39V48.0389Z" fill="white"/>
<path d="M102.39 64.6679H91.4199V75.7538H102.39V64.6679Z" fill="white"/>
<path d="M106.048 118.25H71.308V131.183H106.048V118.25Z" fill="white"/>
<path d="M98.7338 90.535H78.6213V118.25H98.7338V90.535Z" fill="white"/>
<path d="M20.1125 90.535H0V181.07H20.1125V90.535Z" fill="white"/>
<path d="M137.131 160.746H9.14221V181.07H137.131V160.746Z" fill="white"/>
<path d="M98.7341 90.535H9.14221V110.859H98.7341V90.535Z" fill="white"/>
</svg>
