<svg width="258" height="34" viewBox="0 0 258 34" fill="none" xmlns="http://www.w3.org/2000/svg">
<path d="M29.622 33.579H32.3204V18.8295H37.4719V16.2266H24.4705V18.8295H29.622V33.579ZM41.5273 33.579H53.9153V30.9762H44.2257V25.8944H51.7074V23.2915H44.2257V18.8295H53.67V16.2266H41.5273V33.579ZM58.5859 33.579H61.2843V18.8295H69.7474V33.579H72.4459V16.2266H58.5859V33.579ZM75.8716 33.4551L76.3868 33.6534C76.7054 33.7526 77.1469 33.8269 77.7112 33.8269C80.7775 33.8269 82.9854 31.5959 82.9854 21.4323V18.8295H89.241V33.579H91.9391V16.2266H80.2869V21.4323C80.2869 29.7367 78.8153 31.2241 77.2206 31.2241C76.8527 31.2241 76.5337 31.1744 76.2638 31.1001C76.1168 31.0753 75.9942 31.0257 75.8716 30.9762V33.4551ZM99.5438 24.9028C99.5438 21.3084 102.365 18.4576 105.922 18.4576C109.479 18.4576 112.3 21.3084 112.3 24.9028C112.3 28.4972 109.479 31.348 105.922 31.348C102.365 31.348 99.5438 28.4972 99.5438 24.9028ZM96.8454 24.9028C96.8454 29.8606 100.771 33.8269 105.922 33.8269C111.073 33.8269 114.998 29.8606 114.998 24.9028C114.998 19.945 111.073 15.9787 105.922 15.9787C100.771 15.9787 96.8454 19.945 96.8454 24.9028Z" fill="#FF8303"/>
<path d="M29.622 33.579H29.4507V33.7521H29.622V33.579ZM32.3204 33.579V33.7521H32.4917V33.579H32.3204ZM32.3204 18.8294V18.6564H32.1491V18.8294H32.3204ZM37.4719 18.8294V19.0025H37.6432V18.8294H37.4719ZM37.4719 16.2266H37.6432V16.0535H37.4719V16.2266ZM24.4705 16.2266V16.0535H24.2992V16.2266H24.4705ZM24.4705 18.8294H24.2992V19.0025H24.4705V18.8294ZM29.622 18.8294H29.7933V18.6564H29.622V18.8294ZM29.622 33.7521H32.3204V33.4059H29.622V33.7521ZM32.4917 33.579V18.8294H32.1491V33.579H32.4917ZM32.3204 19.0025H37.4719V18.6564H32.3204V19.0025ZM37.6432 18.8294V16.2266H37.3007V18.8294H37.6432ZM37.4719 16.0535H24.4705V16.3997H37.4719V16.0535ZM24.2992 16.2266V18.8294H24.6418V16.2266H24.2992ZM24.4705 19.0025H29.622V18.6564H24.4705V19.0025ZM29.4507 18.8294V33.579H29.7933V18.8294H29.4507ZM41.5273 33.579H41.356V33.7521H41.5273V33.579ZM53.9153 33.579V33.7521H54.0866V33.579H53.9153ZM53.9153 30.9762H54.0866V30.8031H53.9153V30.9762ZM44.2257 30.9762H44.0544V31.1492H44.2257V30.9762ZM44.2257 25.8944V25.7213H44.0544V25.8944H44.2257ZM51.7074 25.8944V26.0675H51.8787V25.8944H51.7074ZM51.7074 23.2915H51.8787V23.1184H51.7074V23.2915ZM44.2257 23.2915H44.0544V23.4646H44.2257V23.2915ZM44.2257 18.8294V18.6564H44.0544V18.8294H44.2257ZM53.67 18.8294V19.0025H53.8413V18.8294H53.67ZM53.67 16.2266H53.8413V16.0535H53.67V16.2266ZM41.5273 16.2266V16.0535H41.356V16.2266H41.5273ZM41.5273 33.7521H53.9153V33.4059H41.5273V33.7521ZM54.0866 33.579V30.9762H53.744V33.579H54.0866ZM53.9153 30.8031H44.2257V31.1492H53.9153V30.8031ZM44.397 30.9762V25.8944H44.0544V30.9762H44.397ZM44.2257 26.0675H51.7074V25.7213H44.2257V26.0675ZM51.8787 25.8944V23.2915H51.5361V25.8944H51.8787ZM51.7074 23.1184H44.2257V23.4646H51.7074V23.1184ZM44.397 23.2915V18.8294H44.0544V23.2915H44.397ZM44.2257 19.0025H53.67V18.6564H44.2257V19.0025ZM53.8413 18.8294V16.2266H53.4987V18.8294H53.8413ZM53.67 16.0535H41.5273V16.3997H53.67V16.0535ZM41.356 16.2266V33.579H41.6986V16.2266H41.356ZM58.5859 33.579H58.4146V33.7521H58.5859V33.579ZM61.2843 33.579V33.7521H61.4556V33.579H61.2843ZM61.2843 18.8294V18.6564H61.113V18.8294H61.2843ZM69.7475 18.8294H69.9188V18.6564H69.7475V18.8294ZM69.7475 33.579H69.5762V33.7521H69.7475V33.579ZM72.4459 33.579V33.7521H72.6172V33.579H72.4459ZM72.4459 16.2266H72.6172V16.0535H72.4459V16.2266ZM58.5859 16.2266V16.0535H58.4146V16.2266H58.5859ZM58.5859 33.7521H61.2843V33.4059H58.5859V33.7521ZM61.4556 33.579V18.8294H61.113V33.579H61.4556ZM61.2843 19.0025H69.7475V18.6564H61.2843V19.0025ZM69.5762 18.8294V33.579H69.9188V18.8294H69.5762ZM69.7475 33.7521H72.4459V33.4059H69.7475V33.7521ZM72.6172 33.579V16.2266H72.2746V33.579H72.6172ZM72.4459 16.0535H58.5859V16.3997H72.4459V16.0535ZM58.4146 16.2266V33.579H58.7572V16.2266H58.4146ZM75.8716 33.4551H75.7003V33.5743L75.8106 33.6168L75.8716 33.4551ZM76.3868 33.6534L76.3258 33.8151L76.331 33.8171L76.3361 33.8188L76.3868 33.6534ZM82.9854 18.8294V18.6564H82.8141V18.8294H82.9854ZM89.241 18.8294H89.4123V18.6564H89.241V18.8294ZM89.241 33.579H89.0698V33.7521H89.241V33.579ZM91.9391 33.579V33.7521H92.1104V33.579H91.9391ZM91.9391 16.2266H92.1104V16.0535H91.9391V16.2266ZM80.287 16.2266V16.0535H80.1157V16.2266H80.287ZM76.2638 31.1001L76.309 30.9331L76.3008 30.9308L76.2923 30.9293L76.2638 31.1001ZM75.8716 30.9762L75.935 30.8154L75.7003 30.7205V30.9762H75.8716ZM75.8106 33.6168L76.3258 33.8151L76.4478 33.4916L75.9326 33.2933L75.8106 33.6168ZM76.3361 33.8188C76.6739 33.9238 77.1326 34 77.7112 34V33.6538C77.1614 33.6538 76.7373 33.5813 76.4372 33.4879L76.3361 33.8188ZM77.7112 34C78.4984 34 79.2428 33.8568 79.9139 33.4698C80.586 33.0824 81.1704 32.4585 81.6504 31.5204C82.6058 29.6532 83.1567 26.5188 83.1567 21.4323H82.8141C82.8141 26.5093 82.2615 29.5723 81.3462 31.3614C80.8909 32.2516 80.3486 32.8207 79.744 33.1692C79.139 33.5182 78.4573 33.6538 77.7112 33.6538V34ZM83.1567 21.4323V18.8294H82.8141V21.4323H83.1567ZM82.9854 19.0025H89.241V18.6564H82.9854V19.0025ZM89.0698 18.8294V33.579H89.4123V18.8294H89.0698ZM89.241 33.7521H91.9391V33.4059H89.241V33.7521ZM92.1104 33.579V16.2266H91.7678V33.579H92.1104ZM91.9391 16.0535H80.287V16.3997H91.9391V16.0535ZM80.1157 16.2266V21.4323H80.4582V16.2266H80.1157ZM80.1157 21.4323C80.1157 25.5808 79.7471 28.0002 79.1931 29.3771C78.9174 30.0628 78.6001 30.4778 78.2709 30.7224C77.9441 30.9653 77.5913 31.051 77.2206 31.051V31.3971C77.6475 31.3971 78.0764 31.2969 78.4741 31.0013C78.8694 30.7075 79.2192 30.2317 79.5104 29.5075C80.091 28.0647 80.4582 25.5881 80.4582 21.4323H80.1157ZM77.2206 31.051C76.8681 31.051 76.5643 31.0035 76.309 30.9331L76.219 31.2671C76.5033 31.3455 76.8373 31.3971 77.2206 31.3971V31.051ZM76.2923 30.9293C76.1655 30.9081 76.059 30.8655 75.935 30.8154L75.8079 31.1368C75.9291 31.1859 76.0679 31.2425 76.2357 31.2708L76.2923 30.9293ZM75.7003 30.9762V33.4551H76.0429V30.9762H75.7003ZM99.7151 24.9028C99.7151 21.404 102.459 18.6307 105.922 18.6307V18.2845C102.27 18.2845 99.3725 21.2128 99.3725 24.9028H99.7151ZM105.922 18.6307C109.384 18.6307 112.129 21.404 112.129 24.9028H112.471C112.471 21.2128 109.574 18.2845 105.922 18.2845V18.6307ZM112.129 24.9028C112.129 28.4016 109.384 31.1749 105.922 31.1749V31.5211C109.574 31.5211 112.471 28.5928 112.471 24.9028H112.129ZM105.922 31.1749C102.459 31.1749 99.7151 28.4016 99.7151 24.9028H99.3725C99.3725 28.5928 102.27 31.5211 105.922 31.5211V31.1749ZM96.6741 24.9028C96.6741 29.9593 100.679 34 105.922 34V33.6538C100.862 33.6538 97.0167 29.7619 97.0167 24.9028H96.6741ZM105.922 34C111.165 34 115.17 29.9593 115.17 24.9028H114.827C114.827 29.7619 110.982 33.6538 105.922 33.6538V34ZM115.17 24.9028C115.17 19.8463 111.165 15.8056 105.922 15.8056V16.1518C110.982 16.1518 114.827 20.0437 114.827 24.9028H115.17ZM105.922 15.8056C100.679 15.8056 96.6741 19.8463 96.6741 24.9028H97.0167C97.0167 20.0437 100.862 16.1518 105.922 16.1518V15.8056Z" fill="#FF8303"/>
<path d="M116.719 33.579H119.54L121.257 29.117H128.862L130.579 33.579H133.4L126.531 16.2266H123.588L116.719 33.579ZM122.238 26.638L125.059 19.4492L127.88 26.638H122.238ZM137.207 33.579H139.905V27.3817H144.076C147.412 27.3817 149.841 24.9028 149.841 21.8041C149.841 18.7055 147.412 16.2266 144.076 16.2266H137.207V33.579ZM139.905 24.9028V18.7055H144.076C145.793 18.7055 147.142 20.0689 147.142 21.8041C147.142 23.5394 145.793 24.9028 144.076 24.9028H139.905ZM154.505 33.579H157.204V20.8126L163.459 28.8691L169.714 20.8126V33.579H172.413V16.2266H169.96L163.459 24.6549L156.958 16.2266H154.505V33.579ZM176.207 33.579H179.028L180.746 29.117H188.35L190.067 33.579H192.889L186.02 16.2266H183.076L176.207 33.579ZM181.727 26.638L184.548 19.4492L187.369 26.638H181.727ZM198.423 33.579H201.122V18.8295H206.273V16.2266H193.272V18.8295H198.423V33.579ZM209.593 33.4551L210.108 33.6534C210.427 33.7526 210.868 33.8269 211.432 33.8269C214.008 33.8269 215.456 32.3396 216.707 29.7367L223.085 16.2266H220.264L215.971 25.5225L210.942 16.2266H208.121L214.621 28.2493L214.254 28.993C213.591 30.3564 212.757 31.224 211.065 31.224C210.647 31.224 210.304 31.1744 210.01 31.1001C209.838 31.0753 209.715 31.0257 209.593 30.9762V33.4551ZM226.764 33.579H229.463V27.3817H233.633C236.969 27.3817 239.398 24.9028 239.398 21.8041C239.398 18.7055 236.969 16.2266 233.633 16.2266H226.764V33.579ZM229.463 24.9028V18.7055H233.633C235.35 18.7055 236.699 20.0689 236.699 21.8041C236.699 23.5394 235.35 24.9028 233.633 24.9028H229.463ZM240.393 33.579H243.214L244.932 29.117H252.536L254.253 33.579H257.074L250.206 16.2266H247.262L240.393 33.579ZM245.913 26.638L248.734 19.4492L251.555 26.638H245.913Z" fill="#0061DD"/>
<path d="M116.719 33.579L116.56 33.5147L116.466 33.7521H116.719V33.579ZM119.54 33.579V33.7521H119.657L119.7 33.6417L119.54 33.579ZM121.257 29.1169V28.9439H121.14L121.098 29.0542L121.257 29.1169ZM128.862 29.1169L129.021 29.0542L128.979 28.9439H128.862V29.1169ZM130.579 33.579L130.419 33.6417L130.462 33.7521H130.579V33.579ZM133.4 33.579V33.7521H133.653L133.559 33.5147L133.4 33.579ZM126.531 16.2266L126.69 16.1623L126.647 16.0535H126.531V16.2266ZM123.588 16.2266V16.0535H123.472L123.428 16.1623L123.588 16.2266ZM122.238 26.638L122.079 26.5742L121.986 26.8111H122.238V26.638ZM125.059 19.4492L125.219 19.3854L125.059 18.9796L124.9 19.3854L125.059 19.4492ZM127.88 26.638V26.8111H128.133L128.04 26.5742L127.88 26.638ZM116.719 33.7521H119.54V33.4059H116.719V33.7521ZM119.7 33.6417L121.417 29.1797L121.098 29.0542L119.38 33.5163L119.7 33.6417ZM121.257 29.29H128.862V28.9439H121.257V29.29ZM128.702 29.1797L130.419 33.6417L130.739 33.5163L129.021 29.0542L128.702 29.1797ZM130.579 33.7521H133.4V33.4059H130.579V33.7521ZM133.559 33.5147L126.69 16.1623L126.372 16.2909L133.241 33.6433L133.559 33.5147ZM126.531 16.0535H123.588V16.3997H126.531V16.0535ZM123.428 16.1623L116.56 33.5147L116.878 33.6433L123.747 16.2909L123.428 16.1623ZM122.398 26.7019L125.219 19.513L124.9 19.3854L122.079 26.5742L122.398 26.7019ZM124.9 19.513L127.721 26.7019L128.04 26.5742L125.219 19.3854L124.9 19.513ZM127.88 26.4649H122.238V26.8111H127.88V26.4649ZM137.207 33.579H137.036V33.7521H137.207V33.579ZM139.905 33.579V33.7521H140.077V33.579H139.905ZM139.905 27.3817V27.2086H139.734V27.3817H139.905ZM137.207 16.2266V16.0535H137.036V16.2266H137.207ZM139.905 24.9028H139.734V25.0759H139.905V24.9028ZM139.905 18.7055V18.5324H139.734V18.7055H139.905ZM137.207 33.7521H139.905V33.4059H137.207V33.7521ZM140.077 33.579V27.3817H139.734V33.579H140.077ZM139.905 27.5548H144.076V27.2086H139.905V27.5548ZM144.076 27.5548C147.502 27.5548 150.012 25.0028 150.012 21.8041H149.669C149.669 24.8028 147.322 27.2086 144.076 27.2086V27.5548ZM150.012 21.8041C150.012 18.6055 147.502 16.0535 144.076 16.0535V16.3997C147.322 16.3997 149.669 18.8055 149.669 21.8041H150.012ZM144.076 16.0535H137.207V16.3997H144.076V16.0535ZM137.036 16.2266V33.579H137.378V16.2266H137.036ZM140.077 24.9028V18.7055H139.734V24.9028H140.077ZM139.905 18.8786H144.076V18.5324H139.905V18.8786ZM144.076 18.8786C145.698 18.8786 146.971 20.1645 146.971 21.8041H147.313C147.313 19.9733 145.888 18.5324 144.076 18.5324V18.8786ZM146.971 21.8041C146.971 23.4438 145.698 24.7297 144.076 24.7297V25.0759C145.888 25.0759 147.313 23.635 147.313 21.8041H146.971ZM144.076 24.7297H139.905V25.0759H144.076V24.7297ZM154.505 33.579H154.334V33.7521H154.505V33.579ZM157.204 33.579V33.7521H157.375V33.579H157.204ZM157.204 20.8126L157.338 20.7057L157.032 20.3116V20.8126H157.204ZM163.459 28.869L163.324 28.9759L163.459 29.1495L163.594 28.9759L163.459 28.869ZM169.714 20.8126H169.886V20.3116L169.58 20.7057L169.714 20.8126ZM169.714 33.579H169.543V33.7521H169.714V33.579ZM172.413 33.579V33.7521H172.584V33.579H172.413ZM172.413 16.2266H172.584V16.0535H172.413V16.2266ZM169.96 16.2266V16.0535H169.876L169.825 16.1202L169.96 16.2266ZM163.459 24.6549L163.324 24.7613L163.459 24.9365L163.594 24.7613L163.459 24.6549ZM156.958 16.2266L157.093 16.1202L157.042 16.0535H156.958V16.2266ZM154.505 16.2266V16.0535H154.334V16.2266H154.505ZM154.505 33.7521H157.204V33.4059H154.505V33.7521ZM157.375 33.579V20.8126H157.032V33.579H157.375ZM157.069 20.9194L163.324 28.9759L163.594 28.7622L157.338 20.7057L157.069 20.9194ZM163.594 28.9759L169.849 20.9194L169.58 20.7057L163.324 28.7622L163.594 28.9759ZM169.543 20.8126V33.579H169.886V20.8126H169.543ZM169.714 33.7521H172.413V33.4059H169.714V33.7521ZM172.584 33.579V16.2266H172.241V33.579H172.584ZM172.413 16.0535H169.96V16.3997H172.413V16.0535ZM169.825 16.1202L163.324 24.5485L163.594 24.7613L170.095 16.333L169.825 16.1202ZM163.594 24.5485L157.093 16.1202L156.823 16.333L163.324 24.7613L163.594 24.5485ZM156.958 16.0535H154.505V16.3997H156.958V16.0535ZM154.334 16.2266V33.579H154.677V16.2266H154.334ZM176.207 33.579L176.048 33.5147L175.955 33.7521H176.207V33.579ZM179.028 33.579V33.7521H179.146L179.188 33.6417L179.028 33.579ZM180.746 29.1169V28.9439H180.629L180.586 29.0542L180.746 29.1169ZM188.35 29.1169L188.51 29.0542L188.468 28.9439H188.35V29.1169ZM190.067 33.579L189.908 33.6417L189.95 33.7521H190.067V33.579ZM192.888 33.579V33.7521H193.142L193.047 33.5147L192.888 33.579ZM186.02 16.2266L186.179 16.1623L186.136 16.0535H186.02V16.2266ZM183.076 16.2266V16.0535H182.96L182.917 16.1623L183.076 16.2266ZM181.727 26.638L181.568 26.5742L181.475 26.8111H181.727V26.638ZM184.548 19.4492L184.707 19.3854L184.548 18.9796L184.389 19.3854L184.548 19.4492ZM187.369 26.638V26.8111H187.621L187.528 26.5742L187.369 26.638ZM176.207 33.7521H179.028V33.4059H176.207V33.7521ZM179.188 33.6417L180.905 29.1797L180.586 29.0542L178.869 33.5163L179.188 33.6417ZM180.746 29.29H188.35V28.9439H180.746V29.29ZM188.19 29.1797L189.908 33.6417L190.227 33.5163L188.51 29.0542L188.19 29.1797ZM190.067 33.7521H192.888V33.4059H190.067V33.7521ZM193.047 33.5147L186.179 16.1623L185.861 16.2909L192.73 33.6433L193.047 33.5147ZM186.02 16.0535H183.076V16.3997H186.02V16.0535ZM182.917 16.1623L176.048 33.5147L176.366 33.6433L183.235 16.2909L182.917 16.1623ZM181.886 26.7019L184.707 19.513L184.389 19.3854L181.568 26.5742L181.886 26.7019ZM184.389 19.513L187.21 26.7019L187.528 26.5742L184.707 19.3854L184.389 19.513ZM187.369 26.4649H181.727V26.8111H187.369V26.4649ZM198.423 33.579H198.252V33.7521H198.423V33.579ZM201.122 33.579V33.7521H201.293V33.579H201.122ZM201.122 18.8294V18.6564H200.951V18.8294H201.122ZM206.273 18.8294V19.0025H206.445V18.8294H206.273ZM206.273 16.2266H206.445V16.0535H206.273V16.2266ZM193.272 16.2266V16.0535H193.101V16.2266H193.272ZM193.272 18.8294H193.101V19.0025H193.272V18.8294ZM198.423 18.8294H198.595V18.6564H198.423V18.8294ZM198.423 33.7521H201.122V33.4059H198.423V33.7521ZM201.293 33.579V18.8294H200.951V33.579H201.293ZM201.122 19.0025H206.273V18.6564H201.122V19.0025ZM206.445 18.8294V16.2266H206.102V18.8294H206.445ZM206.273 16.0535H193.272V16.3997H206.273V16.0535ZM193.101 16.2266V18.8294H193.443V16.2266H193.101ZM193.272 19.0025H198.423V18.6564H193.272V19.0025ZM198.252 18.8294V33.579H198.595V18.8294H198.252ZM209.593 33.4551H209.421V33.5743L209.532 33.6168L209.593 33.4551ZM210.108 33.6534L210.047 33.8151L210.052 33.8171L210.057 33.8188L210.108 33.6534ZM216.707 29.7367L216.861 29.8123L216.861 29.8112L216.707 29.7367ZM223.085 16.2266L223.239 16.3011L223.356 16.0535H223.085V16.2266ZM220.264 16.2266V16.0535H220.155L220.108 16.1534L220.264 16.2266ZM215.971 25.5225L215.82 25.6056L215.983 25.9057L216.126 25.5957L215.971 25.5225ZM210.942 16.2266L211.092 16.1435L211.043 16.0535H210.942V16.2266ZM208.121 16.2266V16.0535H207.832L207.97 16.3096L208.121 16.2266ZM214.621 28.2493L214.775 28.3267L214.815 28.2458L214.772 28.1663L214.621 28.2493ZM214.254 28.993L214.1 28.9156L214.1 28.9167L214.254 28.993ZM210.01 31.1001L210.051 30.9322L210.043 30.93L210.034 30.9287L210.01 31.1001ZM209.593 30.9761L209.656 30.8154L209.421 30.7205V30.9761H209.593ZM209.532 33.6168L210.047 33.8151L210.169 33.4916L209.653 33.2933L209.532 33.6168ZM210.057 33.8188C210.395 33.9238 210.854 34 211.432 34V33.6538C210.883 33.6538 210.458 33.5813 210.158 33.4879L210.057 33.8188ZM211.432 34C212.757 34 213.802 33.6161 214.675 32.8916C215.543 32.1714 216.23 31.1231 216.861 29.8123L216.552 29.6611C215.931 30.9531 215.27 31.9499 214.458 32.6241C213.65 33.294 212.684 33.6538 211.432 33.6538V34ZM216.861 29.8112L223.239 16.3011L222.93 16.1521L216.552 29.6622L216.861 29.8112ZM223.085 16.0535H220.264V16.3997H223.085V16.0535ZM220.108 16.1534L215.815 25.4493L216.126 25.5957L220.419 16.2998L220.108 16.1534ZM216.121 25.4395L211.092 16.1435L210.791 16.3096L215.82 25.6056L216.121 25.4395ZM210.942 16.0535H208.121V16.3997H210.942V16.0535ZM207.97 16.3096L214.471 28.3323L214.772 28.1663L208.271 16.1436L207.97 16.3096ZM214.468 28.1719L214.1 28.9156L214.407 29.0704L214.775 28.3267L214.468 28.1719ZM214.1 28.9167C213.774 29.5877 213.414 30.1182 212.941 30.4821C212.473 30.843 211.879 31.051 211.065 31.051V31.3971C211.942 31.3971 212.612 31.1712 213.149 30.7575C213.682 30.3468 214.071 29.7617 214.407 29.0693L214.1 28.9167ZM211.065 31.051C210.661 31.051 210.332 31.0031 210.051 30.9322L209.968 31.268C210.276 31.3458 210.634 31.3971 211.065 31.3971V31.051ZM210.034 30.9287C209.884 30.9071 209.778 30.8647 209.656 30.8154L209.529 31.1368C209.652 31.1867 209.792 31.2435 209.985 31.2714L210.034 30.9287ZM209.421 30.9761V33.4551H209.764V30.9761H209.421ZM226.764 33.579H226.593V33.7521H226.764V33.579ZM229.463 33.579V33.7521H229.634V33.579H229.463ZM229.463 27.3817V27.2086H229.291V27.3817H229.463ZM226.764 16.2266V16.0535H226.593V16.2266H226.764ZM229.463 24.9028H229.291V25.0759H229.463V24.9028ZM229.463 18.7055V18.5324H229.291V18.7055H229.463ZM226.764 33.7521H229.463V33.4059H226.764V33.7521ZM229.634 33.579V27.3817H229.291V33.579H229.634ZM229.463 27.5548H233.633V27.2086H229.463V27.5548ZM233.633 27.5548C237.059 27.5548 239.569 25.0028 239.569 21.8041H239.226C239.226 24.8028 236.879 27.2086 233.633 27.2086V27.5548ZM239.569 21.8041C239.569 18.6055 237.059 16.0535 233.633 16.0535V16.3997C236.879 16.3997 239.226 18.8055 239.226 21.8041H239.569ZM233.633 16.0535H226.764V16.3997H233.633V16.0535ZM226.593 16.2266V33.579H226.935V16.2266H226.593ZM229.634 24.9028V18.7055H229.291V24.9028H229.634ZM229.463 18.8786H233.633V18.5324H229.463V18.8786ZM233.633 18.8786C235.255 18.8786 236.528 20.1645 236.528 21.8041H236.871C236.871 19.9733 235.445 18.5324 233.633 18.5324V18.8786ZM236.528 21.8041C236.528 23.4438 235.255 24.7297 233.633 24.7297V25.0759C235.445 25.0759 236.871 23.635 236.871 21.8041H236.528ZM233.633 24.7297H229.463V25.0759H233.633V24.7297ZM240.393 33.579L240.234 33.5147L240.14 33.7521H240.393V33.579ZM243.214 33.579V33.7521H243.331L243.374 33.6417L243.214 33.579ZM244.932 29.1169V28.9439H244.814L244.772 29.0542L244.932 29.1169ZM252.536 29.1169L252.696 29.0542L252.653 28.9439H252.536V29.1169ZM254.253 33.579L254.094 33.6417L254.136 33.7521H254.253V33.579ZM257.074 33.579V33.7521H257.327L257.233 33.5147L257.074 33.579ZM250.206 16.2266L250.365 16.1623L250.322 16.0535H250.206V16.2266ZM247.262 16.2266V16.0535H247.146L247.103 16.1623L247.262 16.2266ZM245.913 26.638L245.753 26.5742L245.661 26.8111H245.913V26.638ZM248.734 19.4492L248.893 19.3854L248.734 18.9796L248.574 19.3854L248.734 19.4492ZM251.555 26.638V26.8111H251.807L251.714 26.5742L251.555 26.638ZM240.393 33.7521H243.214V33.4059H240.393V33.7521ZM243.374 33.6417L245.091 29.1797L244.772 29.0542L243.055 33.5163L243.374 33.6417ZM244.932 29.29H252.536V28.9439H244.932V29.29ZM252.377 29.1797L254.094 33.6417L254.413 33.5163L252.696 29.0542L252.377 29.1797ZM254.253 33.7521H257.074V33.4059H254.253V33.7521ZM257.233 33.5147L250.365 16.1623L250.047 16.2909L256.915 33.6433L257.233 33.5147ZM250.206 16.0535H247.262V16.3997H250.206V16.0535ZM247.103 16.1623L240.234 33.5147L240.552 33.6433L247.421 16.2909L247.103 16.1623ZM246.072 26.7019L248.893 19.513L248.574 19.3854L245.753 26.5742L246.072 26.7019ZM248.574 19.513L251.396 26.7019L251.714 26.5742L248.893 19.3854L248.574 19.513ZM251.555 26.4649H245.913V26.8111H251.555V26.4649Z" fill="#0061DD"/>
<path d="M3.76827 10.7314H0.342575V14.8855H3.76827V10.7314Z" fill="#FF8303"/>
<path d="M29.8035 10.7314H33.2292V14.8855H29.8035V10.7314Z" fill="#FF8303"/>
<path d="M0.342575 10.7314L16.7859 0V4.1541L3.76827 12.2892L0.342575 10.7314Z" fill="#FF8303"/>
<path d="M33.2292 10.7314L16.7859 0V4.1541L29.8035 12.2892L33.2292 10.7314Z" fill="#FF8303"/>
<path d="M16.1008 9.00055H14.0453V11.0776H16.1008V9.00055Z" fill="#FF8303"/>
<path d="M16.1008 12.1161H14.0453V14.1932H16.1008V12.1161Z" fill="#FF8303"/>
<path d="M19.1839 9.00055H17.1285V11.0776H19.1839V9.00055Z" fill="#FF8303"/>
<path d="M19.1839 12.1161H17.1285V14.1932H19.1839V12.1161Z" fill="#FF8303"/>
<path d="M19.869 22.1552H13.3602V24.5784H19.869V22.1552Z" fill="#0061DD"/>
<path d="M18.4987 16.9626H14.7305V22.1552H18.4987V16.9626Z" fill="#0061DD"/>
<path d="M3.76826 16.9626H0V33.9252H3.76826V16.9626Z" fill="#0061DD"/>
<path d="M25.6927 30.1173H1.71284V33.9252H25.6927V30.1173Z" fill="#0061DD"/>
<path d="M18.4987 16.9626H1.71284V20.7705H18.4987V16.9626Z" fill="#0061DD"/>
</svg>
