<svg width="1000" height="1000" viewBox="0 0 1000 1000" fill="none" xmlns="http://www.w3.org/2000/svg">
<path d="M174.371 331L180.371 337L174.371 343" stroke="#0061DD" stroke-width="1.5"/>
<path d="M149.371 331L143.371 337L149.371 343" stroke="#0061DD" stroke-width="1.5"/>
<path d="M114.071 333.4L118.371 337.7L114.071 342" stroke="#FF8303" stroke-width="1.5"/>
<path d="M89.0711 335L85.5355 338.536L82 335" stroke="#0061DD" stroke-width="1.5"/>
<path d="M57 335L54 338L51 335" stroke="#595959"/>
<path d="M25.4853 340.387C25.4416 340.353 22.2667 338.091 21.3952 338.253C20.9792 338.326 20.7413 338.607 20.264 339.168C20.1872 339.259 20.0027 339.476 19.8592 339.63C19.5575 339.533 19.2633 339.415 18.9787 339.276C17.5096 338.569 16.3227 337.396 15.6075 335.944C15.4671 335.662 15.3474 335.372 15.2491 335.073C15.4059 334.931 15.6256 334.749 15.7195 334.671C16.2848 334.201 16.5691 333.966 16.6427 333.554C16.7936 332.7 14.5067 329.54 14.4827 329.511C14.3789 329.365 14.2435 329.243 14.0862 329.155C13.929 329.066 13.7538 329.013 13.5733 329C12.6464 329 10 332.394 10 332.965C10 332.998 10.0485 336.374 14.2603 340.609C18.5403 344.768 21.9552 344.816 21.9888 344.816C22.5675 344.816 26 342.2 26 341.284C25.9867 341.106 25.9336 340.933 25.8446 340.778C25.7556 340.623 25.6329 340.49 25.4853 340.387Z" fill="#0061DD"/>
<path d="M60.4308 290.077H62.7384V285.738H58.4923C57.7538 285.738 54.0615 285.923 53.0461 289.708C53.0461 289.8 52.6769 290.723 52.6769 292.754H49.0769V297.277H52.6769V308.262H58.5846V297.277H62.1846V292.754H58.5846V291.646C58.6769 290.631 59.2308 290.077 60.4308 290.077ZM57.3846 296.077V307.062H54.0615V295.985H50.4615V294.046H54.0615V293.4C54.0615 291.185 54.3384 290.169 54.3384 290.077C55.0769 287.215 57.6615 286.938 58.4923 286.938H58.6769H61.5384V288.692H60.4308C58.1231 288.692 57.3846 290.169 57.3846 291.554V293.954H60.9846V296.077H57.3846Z" fill="white"/>
<path d="M33.1693 292.292C33.1693 292.2 32.8923 290.446 32.1539 289.615C31.2308 288.6 30.1231 288.508 29.6616 288.415H29.5693C26.5231 288.231 22 288.138 22 288.138C22 288.138 17.477 288.138 14.5231 288.508H14.4308C14.0616 288.508 12.9539 288.6 12.0308 289.708C11.2 290.631 11.0154 292.385 11.0154 292.385C11.0154 292.385 10.8308 294.323 10.8308 296.169V297.923C10.8308 298.662 10.8308 299.954 11.0154 301.708C11.0154 301.8 11.2924 303.554 12.0308 304.385C12.8616 305.308 13.877 305.492 14.5231 305.585C14.6154 305.585 14.7077 305.585 14.8 305.585C16.5539 305.769 21.9077 305.769 22.1847 305.769C22.3693 305.769 26.8 305.769 29.7539 305.4H29.8462C30.2154 305.4 31.3231 305.308 32.2462 304.2C33.077 303.277 33.2616 301.523 33.2616 301.523C33.2616 301.523 33.4462 299.585 33.4462 297.738V296.077C33.3539 295.338 33.3539 294.046 33.1693 292.292ZM22 304.477C21.9077 304.477 16.4616 304.385 14.8 304.2H14.7077C14.6154 304.2 14.6154 304.2 14.5231 304.2C13.9693 304.2 13.3231 304.015 12.8616 303.462C12.4924 303 12.2154 301.892 12.2154 301.615V301.523C12.0308 299.862 12.0308 298.662 12.0308 297.923V296.169C12.0308 294.323 12.2154 292.477 12.2154 292.477C12.2154 292.108 12.4924 291 12.8616 290.538C13.5077 289.892 14.0616 289.8 14.5231 289.8H14.6154C17.5693 289.615 22 289.523 22.0924 289.523C22.0924 289.523 26.6154 289.523 29.5693 289.8H29.6616C30.0308 289.8 30.677 289.892 31.2308 290.538C31.5077 290.815 31.6923 291.462 31.877 292.569C31.877 292.754 32.0616 294.508 32.0616 296.169V297.923C32.0616 299.769 31.877 301.615 31.877 301.615C31.6923 302.815 31.3231 303.369 31.1385 303.554C30.5847 304.2 29.9385 304.292 29.5693 304.292H29.477C26.5231 304.477 22.1847 304.477 22 304.477Z" fill="white"/>
<path d="M19.7847 292.662C19.6924 292.569 19.6001 292.569 19.4154 292.569C19.2308 292.569 19.1385 292.569 19.0462 292.662C18.8616 292.754 18.7693 293.031 18.7693 293.215V301.246C18.7693 301.523 18.8616 301.708 19.1385 301.8C19.2308 301.892 19.3231 301.892 19.4154 301.892C19.5078 301.892 19.6001 301.892 19.6924 301.8L26.7078 297.831C26.8924 297.738 26.9847 297.462 26.9847 297.277C26.9847 297.092 26.8924 296.815 26.7078 296.723L19.7847 292.662ZM25.1385 297.369L20.0616 300.231V294.415L25.1385 297.369Z" fill="white"/>
<path d="M113.692 249.231H115.615V245.615H112.077C111.461 245.615 108.385 245.769 107.538 248.923C107.538 249 107.231 249.769 107.231 251.462H104.231V255.231H107.231V264.385H112.154V255.231H115.154V251.462H112.154V250.538C112.231 249.692 112.692 249.231 113.692 249.231ZM111.154 254.231V263.385H108.385V254.154H105.385V252.538H108.385V252C108.385 250.154 108.615 249.308 108.615 249.231C109.231 246.846 111.385 246.615 112.077 246.615H112.231H114.615V248.077H113.692C111.769 248.077 111.154 249.308 111.154 250.462V252.462H114.154V254.231H111.154Z" fill="#0061DD"/>
<path d="M89.3076 251.077C89.3076 251 89.0769 249.538 88.4615 248.846C87.6923 248 86.7692 247.923 86.3846 247.846H86.3076C83.7692 247.692 79.9999 247.615 79.9999 247.615C79.9999 247.615 76.2307 247.615 73.7692 247.923H73.6923C73.3846 247.923 72.4615 248 71.6923 248.923C71 249.692 70.8461 251.154 70.8461 251.154C70.8461 251.154 70.6923 252.769 70.6923 254.308V255.769C70.6923 256.385 70.6923 257.462 70.8461 258.923C70.8461 259 71.0769 260.462 71.6923 261.154C72.3846 261.923 73.2307 262.077 73.7692 262.154C73.8461 262.154 73.923 262.154 74 262.154C75.4615 262.308 79.923 262.308 80.1538 262.308C80.3076 262.308 84 262.308 86.4615 262H86.5384C86.8461 262 87.7692 261.923 88.5384 261C89.2307 260.231 89.3846 258.769 89.3846 258.769C89.3846 258.769 89.5384 257.154 89.5384 255.615V254.231C89.4615 253.615 89.4615 252.538 89.3076 251.077ZM79.9999 261.231C79.923 261.231 75.3846 261.154 74 261H73.923C73.8461 261 73.8461 261 73.7692 261C73.3076 261 72.7692 260.846 72.3846 260.385C72.0769 260 71.8461 259.077 71.8461 258.846V258.769C71.6923 257.385 71.6923 256.385 71.6923 255.769V254.308C71.6923 252.769 71.8461 251.231 71.8461 251.231C71.8461 250.923 72.0769 250 72.3846 249.615C72.923 249.077 73.3846 249 73.7692 249H73.8461C76.3076 248.846 80 248.769 80.0769 248.769C80.0769 248.769 83.8461 248.769 86.3076 249H86.3846C86.6923 249 87.2307 249.077 87.6923 249.615C87.923 249.846 88.0769 250.385 88.2307 251.308C88.2307 251.462 88.3846 252.923 88.3846 254.308V255.769C88.3846 257.308 88.2307 258.846 88.2307 258.846C88.0769 259.846 87.7692 260.308 87.6153 260.462C87.1538 261 86.6153 261.077 86.3076 261.077H86.2307C83.7692 261.231 80.1538 261.231 79.9999 261.231Z" fill="#0061DD"/>
<path d="M78.1538 251.385C78.0769 251.308 77.9999 251.308 77.8461 251.308C77.6922 251.308 77.6153 251.308 77.5384 251.385C77.3845 251.462 77.3076 251.692 77.3076 251.846V258.538C77.3076 258.769 77.3845 258.923 77.6153 259C77.6922 259.077 77.7692 259.077 77.8461 259.077C77.923 259.077 77.9999 259.077 78.0768 259L83.923 255.692C84.0769 255.615 84.1538 255.385 84.1538 255.231C84.1538 255.077 84.0769 254.846 83.923 254.769L78.1538 251.385ZM82.6153 255.308L78.3845 257.692V252.846L82.6153 255.308Z" fill="#0061DD"/>
<path d="M58.2307 256.462C58.7692 251.846 58 248.923 56.4615 247.615C54.1538 245.308 46.1538 245 43.3077 247.692C42 249 41.6154 250.923 41.5384 253.308C41.4615 255.692 41.4615 260.154 45.6154 261.385V263.231C45.6154 263.231 45.6154 264 46.0769 264.154C46.6154 264.308 46.8461 264 48.6154 261.923C51.4615 262.154 53.6923 261.615 53.9231 261.538C54.4615 261.385 57.6923 260.923 58.2307 256.462ZM48.8461 260.692C48.8461 260.692 47 262.923 46.4615 263.538C46.3077 263.692 46.0769 263.692 46.0769 263.308C46.0769 263.077 46.0769 260.231 46.0769 260.231C42.5384 259.231 42.7692 255.385 42.7692 253.385C42.7692 251.385 43.1538 249.769 44.2307 248.615C46.6923 246.308 53.7692 246.769 55.5384 248.462C57.7692 250.462 57 255.923 57 256.154C56.5384 259.923 53.9231 260.154 53.3846 260.308C53.2307 260.308 51.3077 260.846 48.8461 260.692Z" fill="#0061DD"/>
<path d="M49.8461 249.077C49.5384 249.077 49.5384 249.538 49.8461 249.538C52.1538 249.538 54 251.154 54.0769 254.077C54.0769 254.385 54.5384 254.385 54.5384 254.077C54.4615 250.923 52.3846 249.077 49.8461 249.077Z" fill="#0061DD"/>
<path d="M52.8462 253.615C52.8462 253.923 53.3077 253.923 53.3077 253.615C53.3077 251.846 52.3077 250.462 50.2308 250.308C49.9231 250.308 49.9231 250.769 50.2308 250.769C52 250.923 52.9231 252.077 52.8462 253.615Z" fill="#0061DD"/>
<path d="M52.3846 255.615C52 255.385 51.6154 255.538 51.4616 255.769L51.1539 256.231C51 256.462 50.6923 256.385 50.6923 256.385C48.3846 255.769 47.7693 253.385 47.7693 253.385C47.7693 253.385 47.7693 253.077 47.9231 252.846L48.3077 252.538C48.5385 252.308 48.6154 251.923 48.4616 251.538C47.9231 250.538 47.5385 250.154 47.3077 249.846C47.0769 249.615 46.7693 249.538 46.4616 249.692C45.7693 250.077 45.0769 250.846 45.3077 251.538C45.6923 252.308 46.4616 254.846 48.7693 256.769C49.8462 257.692 51.6154 258.615 52.3077 258.769C53 259 53.7693 258.231 54.0769 257.538C54.2308 257.231 54.1539 256.923 53.9231 256.692C53.5385 256.385 52.9231 255.923 52.3846 255.615Z" fill="#0061DD"/>
<path d="M50.6154 252C51.3846 252.077 51.6923 252.462 51.7692 253.231C51.7692 253.538 52.2308 253.538 52.2308 253.231C52.1539 252.231 51.6154 251.615 50.6923 251.538C50.3077 251.538 50.3077 252 50.6154 252Z" fill="#0061DD"/>
<path d="M11.0769 254.769L15.6154 257C15.7692 257.077 16 257.077 16.1539 257L20.1539 254.692L17.6923 256.846C17.5385 256.923 17.4615 257.077 17.4615 257.308V262.538C17.4615 263.077 18.1539 263.308 18.5385 262.923L20.4615 260.308L25.3077 263.077C25.6154 263.308 26.0769 263.077 26.1539 262.692L29.2308 247.615C29.3077 247.154 28.8462 246.769 28.4615 247L11.1539 253.692C10.6923 253.923 10.6154 254.538 11.0769 254.769ZM27.8462 248.385L25.2308 261.538L20.6923 258.923C20.4615 258.769 20.1539 258.846 19.9231 259.077L18.6923 260.692V257.462L25.3077 251.615C25.7692 251.231 25.2308 250.385 24.6154 250.769L15.8462 255.846L12.7692 254.308L27.8462 248.385Z" fill="#0061DD"/>
<path d="M52.4 209.7H41.6C41.1227 209.7 40.6648 209.89 40.3273 210.227C39.9897 210.565 39.8 211.023 39.8 211.5V222.9H54.2V211.5C54.2 211.023 54.0104 210.565 53.6728 210.227C53.3353 209.89 52.8774 209.7 52.4 209.7ZM41.6 210.9H52.4C52.5592 210.9 52.7118 210.963 52.8243 211.076C52.9368 211.188 53 211.341 53 211.5V211.9L48.2732 216.628C47.9351 216.964 47.4773 217.153 47 217.153C46.5228 217.153 46.065 216.964 45.7268 216.628L41 211.9V211.5C41 211.341 41.0633 211.188 41.1758 211.076C41.2883 210.963 41.4409 210.9 41.6 210.9ZM41 221.7V213.6L44.8784 217.476C45.4416 218.038 46.2046 218.353 47 218.353C47.7955 218.353 48.5585 218.038 49.1216 217.476L53 213.6V221.7H41Z" fill="#0061DD"/>
<path d="M20.4851 218.876C18.5198 218.044 16.9569 216.477 16.1293 214.51L18.4243 212.211L14.1989 207.982L12.0584 210.122C11.6872 210.495 11.3937 210.939 11.1949 211.426C10.996 211.914 10.8959 212.436 10.9002 212.962C10.9002 217.855 17.1452 224.1 22.0376 224.1C22.564 224.104 23.0861 224.004 23.5736 223.806C24.0611 223.607 24.5042 223.313 24.8773 222.942L27.0177 220.801L22.7888 216.572L20.4851 218.876ZM23.9222 221.987C23.6743 222.233 23.38 222.427 23.0565 222.558C22.7329 222.689 22.3866 222.754 22.0376 222.75C17.8303 222.75 12.2501 217.17 12.2501 212.962C12.2462 212.613 12.3115 212.267 12.4425 211.943C12.5734 211.62 12.7673 211.325 13.0129 211.077L14.1989 209.891L16.5188 212.211L14.5377 214.192L14.7031 214.607C15.1899 215.909 15.951 217.091 16.9347 218.074C17.9184 219.056 19.1018 219.816 20.4048 220.301L20.8138 220.457L22.7888 218.481L25.1088 220.801L23.9222 221.987ZM20.3501 209.25V207.9C22.1397 207.902 23.8554 208.614 25.1208 209.879C26.3863 211.145 27.0981 212.86 27.1 214.65H25.75C25.7484 213.218 25.179 211.846 24.1666 210.833C23.1543 209.821 21.7817 209.252 20.3501 209.25ZM20.3501 211.95V210.6C21.4239 210.601 22.4534 211.028 23.2127 211.787C23.9719 212.547 24.399 213.576 24.4 214.65H23.0501C23.0501 213.934 22.7656 213.247 22.2593 212.741C21.7529 212.234 21.0662 211.95 20.3501 211.95Z" fill="#0061DD"/>
<path d="M517.483 156.347H522.71C523.22 156.347 523.603 155.964 523.603 155.454V149.972C523.603 146.657 520.926 143.98 517.611 143.98H516.973C518.376 142.705 519.396 140.793 519.396 138.625C519.396 134.673 516.208 131.359 512.129 131.359C508.049 131.359 504.862 134.546 504.862 138.625C504.862 140.793 505.754 142.705 507.284 143.98H506.647C503.332 143.98 500.655 146.657 500.655 149.972V155.454C500.655 155.964 501.037 156.347 501.547 156.347H506.774H517.483ZM507.794 154.562V151.757C507.794 151.247 507.412 150.865 506.902 150.865C506.392 150.865 506.009 151.247 506.009 151.757V154.562H502.567V149.972C502.567 147.677 504.352 145.892 506.647 145.892H517.738C520.033 145.892 521.818 147.677 521.818 149.972V154.562H518.376V151.757C518.376 151.247 517.993 150.865 517.483 150.865C516.973 150.865 516.591 151.247 516.591 151.757V154.562H507.794ZM506.902 138.625C506.902 135.693 509.324 133.271 512.256 133.271C515.189 133.271 517.611 135.693 517.611 138.625C517.611 141.558 515.189 143.98 512.256 143.98C509.324 143.98 506.902 141.558 506.902 138.625Z" fill="#FF8303"/>
<path d="M539.412 140.155C537.117 140.155 535.205 141.813 534.822 143.98H532.017C531.762 139.263 529.85 134.928 526.918 131.614L531.89 126.641C532.91 127.406 534.057 127.789 535.332 127.789C535.714 127.789 536.097 127.789 536.352 127.661C536.479 127.661 536.479 127.661 536.607 127.661C536.989 127.534 537.244 127.534 537.627 127.406C537.627 127.406 537.754 127.406 537.754 127.279C538.009 127.151 538.392 127.024 538.647 126.769C538.902 126.514 539.157 126.386 539.412 126.131L539.539 126.004C539.794 125.749 540.049 125.494 540.177 125.239C540.814 124.347 541.197 123.199 541.197 121.924C541.197 121.414 541.069 120.904 540.942 120.394V120.267C540.942 120.139 540.814 120.012 540.814 119.757C540.814 119.629 540.687 119.502 540.687 119.502C540.559 119.247 540.432 118.992 540.177 118.737C540.177 118.737 540.177 118.61 540.049 118.61C539.794 118.355 539.667 118.1 539.412 117.845C539.284 117.717 539.284 117.717 539.157 117.59C539.029 117.462 538.774 117.207 538.647 117.08C538.519 116.952 538.392 116.952 538.264 116.825C538.137 116.697 537.882 116.57 537.754 116.57C537.627 116.57 537.499 116.442 537.372 116.442C537.117 116.315 536.989 116.315 536.734 116.187C536.607 116.187 536.479 116.06 536.352 116.06C535.969 115.932 535.587 115.932 535.205 115.932C531.89 115.932 529.212 118.61 529.212 121.924C529.212 123.199 529.595 124.474 530.36 125.367L527.81 127.916L525.26 130.466C521.946 127.406 517.611 125.494 512.894 125.367V122.307C515.061 121.924 516.718 120.012 516.718 117.717C516.718 116.06 515.953 114.657 514.679 113.765C513.914 113.255 513.021 113 512.001 113C509.451 113 507.284 115.167 507.284 117.717C507.284 120.012 508.942 121.924 511.109 122.307V125.112C506.392 125.367 502.057 127.279 498.742 130.211L493.77 125.239C494.535 124.219 494.918 123.072 494.918 121.797C494.918 121.414 494.918 121.032 494.79 120.777C494.79 120.649 494.79 120.649 494.79 120.522C494.663 120.139 494.663 119.884 494.535 119.502C494.535 119.502 494.535 119.375 494.408 119.375C494.28 119.12 494.153 118.737 493.898 118.482C493.643 118.227 493.515 117.972 493.26 117.717L493.133 117.59C492.878 117.335 492.623 117.08 492.368 116.952C491.475 116.315 490.328 115.932 489.053 115.932C488.543 115.932 488.033 116.06 487.523 116.187H487.396C487.268 116.187 487.141 116.315 486.886 116.315C486.758 116.315 486.631 116.442 486.631 116.442C486.376 116.57 486.121 116.697 485.866 116.952C485.866 116.952 485.738 116.952 485.738 117.08C485.483 117.335 485.228 117.462 484.973 117.717C484.846 117.845 484.846 117.845 484.718 117.972C484.591 118.1 484.336 118.355 484.208 118.482C484.081 118.61 484.081 118.737 483.953 118.865C483.826 118.992 483.699 119.247 483.699 119.375C483.571 119.375 483.571 119.502 483.444 119.629C483.316 119.884 483.316 120.012 483.189 120.267C483.189 120.394 483.061 120.522 483.061 120.649C482.934 121.032 482.934 121.414 482.934 121.797C482.934 125.112 485.611 127.789 488.926 127.789C490.201 127.789 491.475 127.406 492.368 126.641L494.918 129.191L497.467 131.741C494.408 135.056 492.495 139.39 492.368 144.108H489.563C489.436 143.343 489.053 142.578 488.543 141.94C488.288 141.685 487.906 141.43 487.651 141.175C486.886 140.665 485.993 140.41 484.973 140.41C483.316 140.41 481.914 141.175 481.021 142.45C480.511 143.215 480.256 144.108 480.256 145.127C480.256 147.677 482.424 149.845 484.973 149.845C487.268 149.845 489.181 148.187 489.563 146.02H492.368C492.623 150.737 494.535 155.072 497.467 158.386L492.495 163.359C491.475 162.594 490.328 162.211 489.053 162.211C485.738 162.211 483.061 164.888 483.061 168.203C483.061 171.518 485.738 174.195 489.053 174.195C489.436 174.195 489.818 174.195 490.201 174.068C490.328 174.068 490.455 174.068 490.455 173.94C490.583 173.94 490.71 173.813 490.965 173.813C490.965 173.813 491.093 173.813 491.093 173.685C492.75 173.048 494.025 171.9 494.663 170.371C494.79 170.116 494.79 169.861 494.918 169.733C494.918 169.606 495.045 169.478 495.045 169.351C495.173 168.968 495.173 168.586 495.173 168.203C495.173 166.928 494.79 165.653 494.025 164.761L498.997 159.789C502.312 162.849 506.647 164.761 511.364 164.888V167.693C509.197 168.076 507.539 169.988 507.539 172.283C507.539 173.558 508.049 174.705 508.942 175.598C509.834 176.49 510.981 177 512.256 177C514.806 177 516.973 174.833 516.973 172.283C516.973 169.988 515.316 168.076 513.149 167.693V164.888C517.866 164.633 522.201 162.721 525.515 159.789L530.487 164.761C529.722 165.781 529.34 166.928 529.34 168.203C529.34 171.518 532.017 174.195 535.332 174.195C538.647 174.195 541.324 171.518 541.324 168.203C541.324 167.821 541.324 167.438 541.197 167.056C541.197 166.928 541.197 166.801 541.069 166.801C541.069 166.673 540.942 166.546 540.942 166.291C540.942 166.291 540.942 166.163 540.814 166.163C540.177 164.506 539.029 163.231 537.499 162.594C537.244 162.466 536.989 162.466 536.862 162.339C536.734 162.339 536.607 162.211 536.479 162.211C536.097 162.084 535.714 162.084 535.332 162.084C534.057 162.084 532.782 162.466 531.89 163.231L526.918 158.259C529.977 154.944 531.89 150.61 532.017 145.892H534.822C535.205 148.06 537.117 149.717 539.412 149.717C540.049 149.717 540.687 149.59 541.197 149.335C541.452 149.207 541.706 149.08 541.961 148.952C542.726 148.442 543.364 147.677 543.619 146.912C543.874 146.402 544.001 145.765 544.001 145.127C544.129 142.323 541.961 140.155 539.412 140.155ZM536.352 117.717C536.479 117.717 536.607 117.845 536.862 117.845C536.989 117.845 536.989 117.972 537.117 117.972C537.244 117.972 537.372 118.1 537.499 118.227C537.627 118.227 537.627 118.355 537.754 118.355C537.882 118.482 538.009 118.61 538.137 118.737L538.264 118.865C538.392 118.992 538.647 119.247 538.774 119.375C538.902 119.502 539.029 119.757 539.157 120.012C539.157 120.012 539.157 120.139 539.284 120.267C539.412 120.777 539.539 121.159 539.539 121.669C539.539 122.562 539.284 123.327 538.774 123.964C538.647 124.219 538.392 124.347 538.264 124.602C538.137 124.729 538.137 124.729 538.009 124.857C537.882 124.984 537.754 125.112 537.499 125.239C537.372 125.239 537.244 125.367 537.244 125.367C537.117 125.494 536.862 125.494 536.607 125.622C536.479 125.622 536.479 125.749 536.352 125.749C536.097 125.876 535.714 125.876 535.459 125.876C533.165 125.876 531.38 124.092 531.38 121.797C531.38 119.502 533.165 117.717 535.459 117.717C535.714 117.717 535.969 117.717 536.224 117.845C536.224 117.717 536.224 117.717 536.352 117.717ZM509.324 117.717C509.324 116.952 509.579 116.187 510.216 115.677C510.471 115.422 510.726 115.167 511.109 115.04C511.491 114.912 511.874 114.785 512.256 114.785C512.639 114.785 513.021 114.912 513.404 115.04C513.914 115.295 514.296 115.677 514.679 116.06C514.934 116.57 515.189 117.08 515.189 117.59C515.189 118.1 515.061 118.737 514.679 119.12C514.551 119.247 514.424 119.375 514.296 119.502C513.786 120.012 513.021 120.394 512.256 120.394C511.236 120.394 510.471 119.884 509.961 119.12C509.579 118.865 509.324 118.355 509.324 117.717ZM491.475 118.355C491.73 118.482 491.858 118.737 492.113 118.865C492.24 118.992 492.24 118.992 492.368 119.12C492.495 119.247 492.623 119.375 492.75 119.629C492.75 119.757 492.878 119.884 492.878 119.884C493.005 120.012 493.005 120.267 493.133 120.522C493.133 120.649 493.26 120.649 493.26 120.777C493.388 121.032 493.388 121.414 493.388 121.669C493.388 123.964 491.603 125.749 489.308 125.749C487.013 125.749 485.228 123.964 485.228 121.669C485.228 121.414 485.228 121.159 485.356 120.904C485.356 120.777 485.356 120.777 485.356 120.649C485.356 120.522 485.483 120.394 485.483 120.139C485.483 120.012 485.611 120.012 485.611 119.884C485.611 119.757 485.738 119.629 485.866 119.502C485.866 119.375 485.993 119.375 485.993 119.247C486.121 119.12 486.248 118.992 486.376 118.865L486.503 118.737C486.631 118.61 486.886 118.355 487.013 118.227C487.141 118.1 487.396 117.972 487.651 117.845C487.651 117.845 487.778 117.845 487.906 117.717C488.416 117.59 488.798 117.462 489.308 117.462C489.946 117.59 490.71 117.972 491.475 118.355ZM484.973 147.677C484.208 147.677 483.444 147.422 482.934 146.785C482.679 146.53 482.424 146.275 482.296 145.892C482.169 145.51 482.041 145.127 482.041 144.745C482.041 144.363 482.169 143.98 482.296 143.598C482.551 143.088 482.934 142.705 483.316 142.323C483.826 142.068 484.336 141.813 484.846 141.813C485.228 141.813 485.611 141.94 485.993 142.068C486.248 142.195 486.631 142.45 486.886 142.578C486.886 142.578 486.886 142.578 487.013 142.578C487.523 143.088 487.906 143.853 487.906 144.618C487.906 146.02 486.886 147.167 485.611 147.422C485.483 147.677 485.228 147.677 484.973 147.677ZM490.073 172.028C489.946 172.028 489.946 172.028 489.818 172.028C489.563 172.028 489.308 172.155 489.053 172.155C486.758 172.155 484.973 170.371 484.973 168.076C484.973 165.781 486.758 163.996 489.053 163.996C491.348 163.996 493.133 165.781 493.133 168.076C493.133 168.331 493.133 168.586 493.005 168.841C493.005 168.968 493.005 168.968 493.005 169.096C492.623 170.498 491.475 171.645 490.073 172.028ZM513.276 169.478C513.786 169.733 514.169 170.116 514.551 170.498C514.806 171.008 515.061 171.518 515.061 172.028C515.061 172.665 514.934 173.175 514.551 173.558C514.296 174.068 513.786 174.323 513.276 174.578C512.894 174.705 512.511 174.833 512.129 174.833C511.746 174.833 511.364 174.705 510.981 174.578C510.599 174.45 510.344 174.195 510.089 173.94C509.579 173.43 509.197 172.665 509.197 171.9C509.197 171.135 509.451 170.371 510.089 169.861C510.344 169.606 510.599 169.351 510.981 169.223C511.364 169.096 511.746 168.968 512.129 168.968C512.511 168.968 513.021 169.223 513.276 169.478ZM512.256 162.849C510.981 162.849 509.834 162.721 508.687 162.466C500.527 160.809 494.408 153.542 494.408 144.873C494.408 143.598 494.535 142.45 494.79 141.303C495.555 137.223 497.85 133.781 500.782 131.231C500.91 131.104 501.037 130.976 501.292 130.849C501.802 130.466 502.312 130.084 502.822 129.701C503.969 129.064 505.117 128.426 506.392 128.044C508.304 127.406 510.216 127.024 512.384 127.024C513.659 127.024 514.806 127.151 515.953 127.406C517.101 127.661 518.248 128.044 519.268 128.426C520.288 128.936 521.308 129.446 522.328 130.084C523.22 130.721 524.113 131.486 525.005 132.251C527.045 134.291 528.575 136.841 529.467 139.645C529.977 141.303 530.232 143.088 530.232 145C530.105 154.817 522.073 162.849 512.256 162.849ZM539.284 167.056C539.284 167.183 539.284 167.183 539.284 167.311C539.284 167.566 539.412 167.821 539.412 168.076C539.412 170.371 537.627 172.155 535.332 172.155C533.037 172.155 531.252 170.371 531.252 168.076C531.252 165.781 533.037 163.996 535.332 163.996C535.587 163.996 535.842 163.996 536.097 164.124C536.224 164.124 536.224 164.124 536.352 164.124C537.754 164.378 538.902 165.526 539.284 167.056ZM541.961 146.02C541.834 146.402 541.579 146.657 541.324 146.912C540.814 147.422 540.049 147.805 539.284 147.805C538.519 147.805 537.754 147.55 537.244 146.912C536.989 146.657 536.734 146.402 536.607 146.02C536.479 145.637 536.352 145.255 536.352 144.873C536.352 144.49 536.479 144.108 536.607 143.725C536.862 143.215 537.244 142.833 537.627 142.45C538.137 142.195 538.647 141.94 539.157 141.94C539.667 141.94 540.304 142.068 540.687 142.45C541.197 142.705 541.452 143.215 541.707 143.725C541.834 144.108 541.961 144.49 541.961 144.873C541.961 145.255 542.089 145.637 541.961 146.02Z" fill="#0061DD"/>
<path d="M387.789 176.872C387.278 176.872 386.767 176.361 386.767 175.85C386.767 175.339 387.278 174.828 387.789 174.828H388.556V123.731H387.789C387.278 123.731 386.767 123.22 386.767 122.709C386.767 122.198 387.278 121.687 387.789 121.687H391.238C391.749 121.687 392.26 122.198 392.26 122.709C392.26 123.22 391.749 123.731 391.238 123.731H390.472V174.956H391.238C391.749 174.956 392.26 175.467 392.26 175.978C392.26 176.489 391.749 177 391.238 177H387.789V176.872Z" fill="#0061DD"/>
<path d="M448.723 118.493C448.212 118.493 447.701 117.982 447.701 117.471V116.705H397.37V117.471C397.37 117.982 396.859 118.493 396.348 118.493C395.837 118.493 395.326 117.982 395.326 117.471V114.022C395.326 113.511 395.837 113 396.348 113C396.859 113 397.37 113.511 397.37 114.022V114.788H447.701V114.022C447.701 113.511 448.212 113 448.723 113C449.234 113 449.745 113.511 449.745 114.022V117.471C449.745 117.982 449.362 118.493 448.723 118.493Z" fill="#0061DD"/>
<path d="M396.22 176.872C395.709 176.872 395.198 176.361 395.198 175.85V122.709C395.198 122.198 395.709 121.687 396.22 121.687H448.723C449.234 121.687 449.745 122.198 449.745 122.709V160.776C449.745 161.287 449.234 161.798 448.723 161.798H437.865V175.85C437.865 176.361 437.354 176.872 436.843 176.872H396.22ZM397.242 174.828H435.821V160.776C435.821 160.265 436.332 159.754 436.843 159.754H447.701V123.731H397.242V174.828Z" fill="#0061DD"/>
<path d="M433.522 142.637V144.297H427.518V143.914C427.518 143.403 427.646 142.764 428.029 142.253C428.412 141.743 428.923 141.232 429.817 140.465C430.584 139.826 431.095 139.315 431.478 138.932C431.733 138.549 431.861 138.166 431.861 137.782C431.861 137.399 431.733 137.144 431.606 136.888C431.35 136.76 431.095 136.633 430.711 136.633C430.328 136.633 430.073 136.76 429.817 136.888C429.562 137.144 429.434 137.399 429.434 137.782V138.038H427.773V137.655C427.773 136.888 428.157 136.249 428.667 135.739C429.178 135.228 429.817 134.972 430.711 134.972C431.606 134.972 432.372 135.228 432.755 135.739C433.266 136.249 433.522 136.888 433.522 137.655C433.522 138.293 433.266 138.932 433.011 139.443C432.628 139.954 431.989 140.593 430.967 141.359C430.711 141.615 430.456 141.743 430.328 141.87L429.817 142.381H433.522V142.637Z" fill="#FF8303"/>
<path d="M412.316 142.381C412.188 142.381 412.188 142.253 412.061 142.253C412.188 142.253 412.316 142.253 412.316 142.381Z" fill="#0061DD"/>
<path d="M412.572 142.509C412.572 142.381 412.444 142.381 412.316 142.253C412.444 142.381 412.444 142.509 412.572 142.509Z" fill="#0061DD"/>
<path d="M422.919 142.381C422.791 142.381 422.791 142.509 422.664 142.637C422.791 142.509 422.919 142.381 422.919 142.381Z" fill="#0061DD"/>
<path d="M423.174 142.253C423.047 142.253 423.047 142.381 422.919 142.381C423.047 142.253 423.174 142.253 423.174 142.253Z" fill="#0061DD"/>
<path d="M423.813 156.816C423.302 156.816 422.791 156.305 422.791 155.794V146.341L418.576 151.707C418.448 151.962 418.065 152.09 417.809 152.09C417.426 152.09 417.17 151.962 417.043 151.707L412.827 146.341V155.794C412.827 156.305 412.316 156.816 411.805 156.816C411.294 156.816 410.783 156.305 410.783 155.794V143.275C410.783 143.148 410.783 142.892 410.911 142.892C410.911 142.764 411.039 142.764 411.039 142.764C411.039 142.637 411.166 142.637 411.166 142.637L411.294 142.509L411.422 142.381C411.55 142.381 411.55 142.381 411.677 142.253C411.805 142.253 411.805 142.253 411.933 142.253C412.061 142.253 412.061 142.253 412.188 142.253L412.316 142.381C412.444 142.381 412.572 142.509 412.699 142.637L412.827 142.764L418.065 149.407L423.302 142.764C423.43 142.509 423.558 142.509 423.685 142.381L423.813 142.253C423.941 142.253 423.941 142.253 424.069 142.253C424.196 142.253 424.196 142.253 424.324 142.253H424.452C424.58 142.253 424.58 142.253 424.58 142.381L424.707 142.509L424.835 142.637C424.963 142.764 424.963 142.764 424.963 142.764C425.091 142.892 425.091 143.148 425.091 143.275V155.794C424.835 156.433 424.324 156.816 423.813 156.816Z" fill="#FF8303"/>
<path d="M355.488 148.84C355.104 148.328 354.72 147.944 354.208 147.688L348.704 144.744L347.936 146.408L352.928 149.096L339.488 156.008L325.92 149.096L330.272 146.664L329.632 145L325.024 147.56V130.92L338.72 124.008V127.336C338.72 127.848 339.104 128.232 339.616 128.232C340.128 128.232 340.512 127.848 340.512 127.336V123.752C340.512 123.112 340.384 122.472 340 122.088C339.744 121.576 339.232 121.192 338.72 120.936L325.536 113.768C324.64 113.256 323.488 113.256 322.592 113.768L309.28 120.936C308.384 121.448 307.616 122.6 307.616 123.88V140.264L293.664 147.688C292.768 148.072 292 149.224 292 150.504V166.504C292 167.784 292.64 168.936 293.792 169.448L307.104 176.232C307.872 176.616 308.896 176.744 309.92 176.232L324 169.064L338.08 176.232C338.464 176.488 338.976 176.616 339.488 176.616C340 176.616 340.512 176.488 340.896 176.232L354.208 169.448C355.36 168.936 356 167.784 356 166.504V150.504C356 149.992 355.872 149.352 355.488 148.84ZM307.488 174.44L294.56 167.784C294.176 167.528 293.792 167.016 293.792 166.504V150.632L307.488 157.544V174.44ZM294.944 149.096L308.384 141.8L321.824 149.096L308.384 156.008L294.944 149.096ZM323.104 167.4L309.408 174.44V157.672L323.104 150.76V167.4ZM323.104 147.56L309.408 140.264V123.88L323.104 130.792V147.56ZM310.56 122.344L323.488 115.432C323.872 115.176 324.256 115.176 324.64 115.432L337.568 122.344L324 129.256L310.56 122.344ZM338.592 174.44L324.896 167.528V150.632L338.592 157.544V174.44ZM354.08 166.632C354.08 167.144 353.824 167.656 353.312 167.912L340.512 174.44V157.672L354.208 150.76V166.632H354.08Z" fill="#0061DD"/>
<path d="M337.696 144.616C337.824 144.744 338.08 144.872 338.336 144.872C338.592 144.872 338.848 144.744 338.976 144.616L344.352 138.984C344.736 138.6 344.736 137.96 344.352 137.704C343.968 137.32 343.328 137.32 343.072 137.704L338.336 142.696L336.032 140.52C335.648 140.136 335.008 140.136 334.752 140.52C334.368 140.904 334.368 141.544 334.752 141.8L337.696 144.616Z" fill="#FF8303"/>
<path d="M339.104 131.048C333.472 131.048 328.864 135.656 328.864 141.288C328.864 142.568 329.12 143.848 329.632 145.128L330.528 146.792C332.32 149.736 335.52 151.656 339.232 151.656C343.072 151.656 346.4 149.608 348.192 146.536L348.96 144.872C349.344 143.848 349.6 142.696 349.6 141.416C349.344 135.656 344.736 131.048 339.104 131.048ZM339.104 149.736C334.368 149.736 330.656 145.896 330.656 141.288C330.656 136.552 334.496 132.84 339.104 132.84C343.84 132.84 347.552 136.68 347.552 141.288C347.552 145.896 343.84 149.736 339.104 149.736Z" fill="#FF8303"/>
<path d="M256.624 134.376C255.856 125.416 248.304 118.376 239.472 118.376H236.784C236.144 118.376 235.76 118.888 235.76 119.4V134.504H237.936V120.552H239.6C247.28 120.552 253.808 126.568 254.576 134.248V134.504H256.88L256.624 134.376ZM253.808 163.816C253.168 160.872 250.608 158.696 247.536 158.696C244.464 158.696 241.776 160.872 241.136 163.944V164.072V166.376V166.504C241.776 169.448 244.464 171.624 247.536 171.624C250.608 171.624 253.296 169.448 253.936 166.376V166.248L254.064 164.072L253.808 163.816ZM247.536 169.448C245.232 169.448 243.184 167.528 243.184 165.224C243.184 162.792 245.104 160.872 247.536 160.872C249.84 160.872 251.76 162.792 251.76 165.224C251.76 167.528 249.84 169.448 247.536 169.448ZM229.744 122.088C229.744 120.04 228.08 118.376 226.032 118.376H199.152C198.512 118.376 198 118.888 198 119.528C198 120.168 198.512 120.552 199.024 120.552H225.904C226.8 120.552 227.568 121.32 227.568 122.216V164.2H227.056L226.928 164.072V163.944C226.288 161 223.728 158.824 220.656 158.824C217.584 158.824 214.896 161 214.256 164.072V164.2H210.928L210.8 163.944V163.816C210.16 160.872 207.472 158.696 204.528 158.696C200.944 158.696 198 161.64 198 165.096C198 168.68 200.944 171.496 204.528 171.496C207.6 171.496 210.288 169.32 210.928 166.248V166.12H214.128L214.256 166.248V166.376C214.896 169.32 217.584 171.496 220.656 171.496C223.728 171.496 226.416 169.32 227.056 166.248V166.12H235.76V163.944H229.872V122.088H229.744ZM204.528 169.448C202.096 169.448 200.176 167.528 200.176 165.224C200.176 162.792 202.096 160.872 204.528 160.872C206.832 160.872 208.752 162.792 208.752 165.224C208.752 167.528 206.832 169.448 204.528 169.448ZM220.656 169.448C218.352 169.448 216.304 167.528 216.304 165.224C216.304 162.792 218.224 160.872 220.656 160.872C222.96 160.872 224.88 162.792 224.88 165.224C224.88 167.528 222.96 169.448 220.656 169.448Z" fill="#0061DD"/>
<path d="M217.84 152.808C217.2 152.808 216.816 152.296 216.816 151.784V127.592C216.816 126.952 217.328 126.568 217.84 126.568C218.352 126.568 218.864 127.08 218.864 127.592V151.784C218.992 152.296 218.48 152.808 217.84 152.808Z" fill="#0061DD"/>
<path d="M204.4 152.808C203.76 152.808 203.376 152.296 203.376 151.784V127.592C203.376 126.952 203.888 126.568 204.4 126.568C205.04 126.568 205.424 127.08 205.424 127.592V151.784C205.552 152.296 205.04 152.808 204.4 152.808Z" fill="#0061DD"/>
<path d="M260.976 134.504H235.632V166.248H241.008L241.136 166.376V164.072H237.808V136.68H259.824V142.568H244.848C244.208 142.568 243.824 143.08 243.824 143.592V151.656C243.824 152.296 244.336 152.68 244.848 152.68H259.952V162.408C259.952 163.304 259.184 164.072 258.288 164.072H254.064L253.936 166.248H258.288C260.336 166.248 262.128 164.584 262.128 162.536V135.656C262 135.016 261.488 134.504 260.976 134.504ZM259.824 150.632H245.872V144.744H259.824V150.632Z" fill="#FF8303"/>
<path d="M136 150.248C131.648 150.248 128.064 146.664 128.064 142.312C128.064 137.96 131.648 134.376 136 134.376C140.352 134.376 143.936 137.96 143.936 142.312C143.936 146.664 140.352 150.248 136 150.248ZM136 136.68C132.928 136.68 130.368 139.24 130.368 142.312C130.368 145.384 132.928 147.944 136 147.944C139.072 147.944 141.632 145.384 141.632 142.312C141.632 139.24 139.2 136.68 136 136.68Z" fill="#FF8303"/>
<path d="M122.176 177C120.768 177 119.744 175.848 119.744 174.568V164.2C119.744 158.312 124.48 153.576 130.368 153.576H141.504C147.392 153.576 152.128 158.312 152.128 164.2V174.568C152.128 175.976 151.104 177 149.696 177H122.176ZM144.832 163.304C145.344 163.304 145.728 163.688 145.728 164.2V174.696H149.952V164.2C149.952 159.592 146.24 155.88 141.632 155.88H130.496C125.888 155.88 122.176 159.592 122.176 164.2V174.824H126.4V164.2C126.4 163.688 126.784 163.304 127.296 163.304C127.808 163.304 128.192 163.688 128.192 164.2V174.696H144.192V164.2C144.064 163.688 144.448 163.304 144.832 163.304Z" fill="#FF8303"/>
<path d="M121.664 128.872C117.312 128.872 113.728 125.288 113.728 120.936C113.728 116.584 117.184 113 121.664 113C126.016 113 129.6 116.584 129.6 120.936C129.6 125.288 126.016 128.872 121.664 128.872ZM121.664 115.304C118.592 115.304 116.032 117.864 116.032 120.936C116.032 124.008 118.592 126.568 121.664 126.568C124.736 126.568 127.296 124.008 127.296 120.936C127.296 117.864 124.736 115.304 121.664 115.304Z" fill="#0061DD"/>
<path d="M107.84 155.368C106.432 155.368 105.408 154.216 105.408 152.936V142.44C105.408 136.552 110.144 131.816 116.032 131.816H127.168C127.936 131.816 128.704 131.944 129.472 132.072C130.112 132.2 130.496 132.84 130.368 133.48C130.24 133.992 129.728 134.376 129.216 134.376C129.088 134.376 129.088 134.376 128.96 134.376C128.32 134.248 127.808 134.12 127.168 134.12H116.032C111.424 134.12 107.712 137.832 107.712 142.44V153.064H111.808V142.568C111.808 142.056 112.192 141.672 112.704 141.672C113.216 141.672 113.6 142.056 113.6 142.568V153.064H119.488C120.128 153.064 120.64 153.576 120.64 154.216C120.64 154.856 120.128 155.368 119.488 155.368H107.84Z" fill="#0061DD"/>
<path d="M150.464 128.872C146.112 128.872 142.528 125.288 142.528 120.936C142.528 116.584 145.984 113 150.464 113C154.816 113 158.4 116.584 158.4 120.936C158.4 125.288 154.816 128.872 150.464 128.872ZM150.464 115.304C147.392 115.304 144.832 117.864 144.832 120.936C144.832 124.008 147.392 126.568 150.464 126.568C153.536 126.568 156.096 124.008 156.096 120.936C156.096 117.864 153.536 115.304 150.464 115.304Z" fill="#0061DD"/>
<path d="M152.512 155.368C151.872 155.368 151.36 154.856 151.36 154.216C151.36 153.576 151.872 153.064 152.512 153.064H158.4V142.568C158.4 142.056 158.784 141.672 159.296 141.672C159.808 141.672 160.192 142.056 160.192 142.568V153.064H164.416V142.44C164.416 140.264 163.52 138.088 161.984 136.552C160.448 135.016 158.272 134.12 156.096 134.12H144.96C144.32 134.12 143.808 134.12 143.168 134.376C143.04 134.376 143.04 134.376 142.912 134.376C142.4 134.376 141.888 133.992 141.76 133.48C141.632 132.84 142.016 132.2 142.656 132.072C143.424 131.944 144.192 131.816 144.96 131.816H156.096C158.912 131.816 161.6 132.968 163.648 134.888C165.696 136.936 166.72 139.624 166.72 142.44V152.808C166.72 154.216 165.568 155.24 164.288 155.24H152.512V155.368Z" fill="#0061DD"/>
<path d="M21.904 173.928C21.52 173.928 21.264 173.8 21.008 173.544L12.56 162.792C10.896 160.744 10 158.056 10 155.368C10 148.84 15.376 143.464 21.904 143.464C27.28 143.464 32.016 147.176 33.424 152.424C33.424 152.68 33.552 155.24 33.68 156.904C33.424 159.08 32.528 161.128 31.12 162.792L22.672 173.544C22.544 173.8 22.16 173.928 21.904 173.928ZM21.904 145.64C16.528 145.64 12.176 149.992 12.176 155.368C12.176 157.544 12.944 159.848 14.352 161.512L21.904 171.24L29.328 161.768L29.456 161.64C30.864 159.848 31.632 157.672 31.632 155.496C31.632 149.992 27.28 145.64 21.904 145.64Z" fill="#FF8303"/>
<path d="M21.9039 161.512C20.3679 161.512 18.8319 160.872 17.6799 159.72C16.5279 158.568 15.8879 157.16 15.8879 155.496C15.8879 153.96 16.5279 152.424 17.6799 151.272C18.8319 150.12 20.2399 149.48 21.9039 149.48C23.5679 149.48 24.9759 150.12 26.1279 151.272C27.2799 152.424 27.9199 153.832 27.9199 155.496C27.9199 157.032 27.2799 158.568 26.1279 159.72C24.9759 160.872 23.4399 161.512 21.9039 161.512ZM21.9039 151.784C20.8799 151.784 19.9839 152.168 19.2159 152.936C17.6799 154.472 17.6799 156.776 19.2159 158.312C19.9839 159.08 20.8799 159.464 21.9039 159.464C22.9279 159.464 23.8239 159.08 24.5919 158.312C26.1279 156.776 26.1279 154.472 24.5919 152.936C23.8239 152.168 22.9279 151.784 21.9039 151.784Z" fill="#FF8303"/>
<path d="M64.144 139.496C63.76 139.496 63.504 139.368 63.248 139.112L56.464 130.408C55.056 128.616 54.288 126.44 54.288 124.264C54.288 118.888 58.64 114.408 64.144 114.408C69.648 114.408 74 118.632 74 124.136C74 126.44 73.232 128.616 71.824 130.28L65.04 138.984C64.784 139.24 64.528 139.496 64.144 139.496ZM64.144 116.456C59.92 116.456 56.464 119.912 56.464 124.136C56.464 125.928 57.104 127.592 58.256 129L64.272 136.68L70.16 129.128C71.312 127.592 71.952 125.928 71.952 124.136C71.824 119.912 68.368 116.456 64.144 116.456Z" fill="#FF8303"/>
<path d="M64.144 129.128C62.864 129.128 61.584 128.616 60.688 127.72C59.792 126.824 59.28 125.544 59.28 124.264C59.28 122.984 59.792 121.704 60.688 120.808C61.712 119.912 62.864 119.4 64.144 119.4C65.424 119.4 66.704 119.912 67.6 120.808C69.52 122.728 69.52 125.8 67.6 127.72C66.704 128.616 65.424 129.128 64.144 129.128ZM64.144 121.576C63.376 121.576 62.736 121.832 62.224 122.344C61.712 122.856 61.456 123.496 61.456 124.264C61.456 125.032 61.712 125.672 62.224 126.184C62.736 126.696 63.376 126.952 64.144 126.952C64.912 126.952 65.552 126.696 66.064 126.184C67.088 125.16 67.088 123.496 66.064 122.344C65.552 121.832 64.912 121.576 64.144 121.576Z" fill="#FF8303"/>
<path d="M37.648 153.832C37.136 153.832 36.624 153.448 36.624 152.936C36.496 152.296 36.88 151.784 37.52 151.656L48.656 149.864C49.296 149.736 49.936 149.352 50.448 148.968L51.6 148.072C53.776 146.536 54.416 143.592 53.136 141.288L52.624 140.392C51.728 138.6 49.936 137.448 47.888 137.448H44.688C42.64 137.448 40.72 136.68 39.312 135.144C37.904 133.736 37.136 131.816 37.136 129.896V129.384C37.136 127.848 36.368 126.312 35.216 125.288L30.224 121.064H30.096C27.792 122.344 25.616 123.88 23.824 125.8C19.728 129.896 17.04 135.144 16.016 140.904C15.888 141.416 15.504 141.8 14.992 141.8H14.864C14.224 141.672 13.84 141.16 13.968 140.52C14.992 134.248 17.936 128.616 22.416 124.264C24.592 122.088 27.024 120.296 29.84 118.888C29.84 118.888 29.968 118.888 29.968 118.76C34.192 116.584 38.928 115.432 43.664 115.432C46.224 115.432 48.912 115.816 51.344 116.456C51.984 116.584 52.24 117.224 52.112 117.736C51.984 118.248 51.6 118.504 51.088 118.504C50.96 118.504 50.96 118.504 50.832 118.504C48.4 118.12 45.968 117.736 43.536 117.736C39.696 117.736 35.984 118.504 32.4 120.04L32.144 120.168L36.368 123.752C38.032 125.16 39.056 127.336 39.056 129.512V130.024C39.056 131.432 39.568 132.712 40.592 133.736C41.616 134.76 43.024 135.4 44.432 135.4H47.632C50.448 135.4 53.008 136.936 54.288 139.496L54.8 140.392C56.464 143.72 55.568 147.688 52.624 149.864L51.472 150.76C50.704 151.4 49.68 151.784 48.784 152.04L37.648 153.832C37.648 153.832 37.776 153.832 37.648 153.832Z" fill="#0061DD"/>
<path d="M43.408 175.72C38.928 175.72 34.576 174.696 30.48 172.776C29.968 172.52 29.712 171.88 29.968 171.368C30.096 170.984 30.48 170.728 30.992 170.728C31.12 170.728 31.248 170.728 31.504 170.856C35.216 172.648 39.312 173.544 43.408 173.544C43.792 173.544 44.048 173.544 44.432 173.544H44.56V171.24C44.56 169.32 45.84 167.656 47.76 167.272L51.728 166.376C52.624 166.248 53.136 165.48 53.136 164.584C53.136 163.176 53.904 161.896 55.056 161.128L61.712 157.16C62.352 156.776 62.992 156.648 63.76 156.648C64.784 156.648 65.68 157.032 66.448 157.672L67.984 158.952L68.112 158.824C71.312 153.064 72.208 146.28 70.8 139.752C70.672 139.112 71.056 138.6 71.696 138.472C71.824 138.472 71.824 138.472 71.952 138.472C72.464 138.472 72.848 138.856 72.976 139.368C75.152 149.352 72.08 159.72 64.784 166.888C59.152 172.52 51.344 175.72 43.408 175.72ZM63.76 158.824C63.376 158.824 63.12 158.952 62.864 159.08L56.208 163.048C55.696 163.432 55.312 163.944 55.312 164.584C55.312 166.504 54.032 168.168 52.112 168.552L48.144 169.448C47.248 169.576 46.736 170.344 46.736 171.24V173.288H46.864C53.008 172.52 58.896 169.704 63.248 165.352C64.528 164.072 65.808 162.536 66.832 161V160.872L65.04 159.336C64.656 159.08 64.272 158.824 63.76 158.824Z" fill="#0061DD"/>
<path d="M608 11.7H537.6C537 11.7 536.6 12.1 536.6 12.7V19C536.6 19.6 537 20 537.6 20H552.5V22.5C552.5 24.1 553.5 25.5 554.9 26.1L555.2 26.2V34.8C555.2 38.4 556.3 41.8 558.3 44.8C560.1 47.4 562.5 49.5 565.4 50.8L565.6 50.9V54.6H564.5C562 54.6 559.9 56.7 559.9 59.2V62.8C559.9 63.3 560.4 63.8 560.9 63.8H584.7C585.2 63.8 585.7 63.3 585.7 62.8V59.2C585.7 56.7 583.6 54.6 581.1 54.6H580V50.9L580.3 50.8C583.1 49.5 585.6 47.4 587.4 44.8C589.4 41.9 590.5 38.4 590.5 34.8V26.2L590.8 26.1C592.3 25.5 593.2 24.1 593.2 22.5V20H608.1C608.6 20 609.1 19.6 609.1 19V12.7C609 12.1 608.6 11.7 608 11.7ZM565 48.3C560.2 45.5 557.2 40.3 557.2 34.8V26.4H561.2V34.8C561.2 38.3 562.7 41.5 565.5 43.8L565.6 43.9V48.7L565 48.3ZM570.8 26.4H574.8V30C574.8 31.1 573.9 32 572.8 32C571.7 32 570.8 31.1 570.8 30V26.4ZM571.6 33.8L571.9 33.9V39.3H569.8C568.4 39.3 567.2 40 566.4 41.1L566.1 41.6L565.7 41.2C564.1 39.4 563.3 37.2 563.3 34.8V26.4H568.9V30C568.8 31.7 569.9 33.3 571.6 33.8ZM576 41.3C577.2 41.3 578.1 42.2 578.1 43.4V54.6H567.7V43.4C567.7 42.2 568.7 41.3 569.8 41.3H576ZM581.2 56.5C582.6 56.5 583.8 57.7 583.8 59.1V61.7H562V59.1C562 57.7 563.2 56.5 564.6 56.5H581.2ZM580.1 41.2L579.7 41.6L579.4 41.1C578.6 39.9 577.4 39.3 576 39.3H573.9V33.9L574.2 33.8C575.8 33.3 576.9 31.7 576.9 30V26.4H582.5V34.8C582.5 37.1 581.6 39.4 580.1 41.2ZM588.5 34.8C588.5 40.3 585.5 45.5 580.7 48.3L580 48.7V43.9L580.2 43.8C582.9 41.6 584.5 38.3 584.5 34.8V26.4H588.5V34.8ZM607 18H579.2C578.7 18 578.2 18.5 578.2 19C578.2 19.6 578.7 20 579.2 20H591.2V22.5C591.2 23.5 590.3 24.4 589.3 24.4H556.4C555.4 24.4 554.5 23.6 554.5 22.5V20H566.4C567 20 567.4 19.6 567.4 19C567.4 18.5 567 18 566.4 18H538.6V13.7H607V18Z" fill="#FF8303"/>
<path d="M572.8 74.7C572.3 74.7 571.8 74.3 571.8 73.7V70.3C571.8 69.8 572.2 69.3 572.8 69.3C573.3 69.3 573.8 69.7 573.8 70.3V73.7C573.8 74.3 573.4 74.7 572.8 74.7Z" fill="#FF8303"/>
<path d="M572.8 83.3C572.3 83.3 571.8 82.9 571.8 82.3V78.9C571.8 78.4 572.2 77.9 572.8 77.9C573.3 77.9 573.8 78.3 573.8 78.9V82.3C573.8 82.9 573.4 83.3 572.8 83.3Z" fill="#FF8303"/>
<path d="M581.5 74.1C581.1 74.1 580.8 73.9 580.6 73.5L579.1 70.4C578.9 69.9 579.1 69.3 579.6 69.1C580.1 68.9 580.7 69.1 580.9 69.6L582.4 72.7C582.6 73.2 582.4 73.8 581.9 74C581.8 74.1 581.7 74.1 581.5 74.1Z" fill="#FF8303"/>
<path d="M585.2 81.9C584.8 81.9 584.5 81.7 584.3 81.3L582.8 78.2C582.6 77.7 582.8 77.1 583.3 76.9C583.8 76.7 584.4 76.9 584.6 77.4L586.1 80.5C586.3 81 586.1 81.6 585.6 81.8C585.5 81.9 585.3 81.9 585.2 81.9Z" fill="#FF8303"/>
<path d="M564.1 74.1C564 74.1 563.8 74.1 563.7 74C563.2 73.8 563 73.2 563.2 72.7L564.7 69.6C564.9 69.1 565.5 68.9 566 69.1C566.5 69.3 566.7 69.9 566.5 70.4L565 73.5C564.8 73.9 564.5 74.1 564.1 74.1Z" fill="#FF8303"/>
<path d="M560.5 81.9C560.4 81.9 560.2 81.9 560.1 81.8C559.6 81.6 559.4 81 559.6 80.5L561.1 77.4C561.3 76.9 561.9 76.7 562.4 76.9C562.9 77.1 563.1 77.7 562.9 78.2L561.4 81.3C561.2 81.7 560.8 81.9 560.5 81.9Z" fill="#FF8303"/>
<path d="M589.4 74.3C589.1 74.3 588.8 74.2 588.6 73.9L586.6 71.1C586.3 70.7 586.4 70 586.8 69.7C587.2 69.4 587.9 69.5 588.2 69.9L590.2 72.7C590.5 73.1 590.4 73.8 590 74.1C589.8 74.3 589.6 74.3 589.4 74.3Z" fill="#FF8303"/>
<path d="M594.3 81.4C594 81.4 593.7 81.3 593.5 81L591.5 78.2C591.2 77.8 591.3 77.1 591.7 76.8C592.1 76.5 592.8 76.6 593.1 77L595.1 79.8C595.4 80.2 595.3 80.9 594.9 81.2C594.7 81.3 594.5 81.4 594.3 81.4Z" fill="#FF8303"/>
<path d="M556.3 74.3C556.1 74.3 555.9 74.2 555.7 74.1C555.3 73.8 555.1 73.2 555.5 72.7L557.5 69.9C557.8 69.4 558.4 69.3 558.9 69.7C559.4 70.1 559.5 70.6 559.1 71.1L557.1 73.9C556.9 74.2 556.6 74.3 556.3 74.3Z" fill="#FF8303"/>
<path d="M551.3 81.4C551.1 81.4 550.9 81.3 550.7 81.2C550.3 80.9 550.1 80.3 550.5 79.8L552.5 77C552.8 76.5 553.4 76.4 553.9 76.8C554.3 77.1 554.5 77.7 554.1 78.2L552.1 81C551.9 81.3 551.6 81.4 551.3 81.4Z" fill="#FF8303"/>
<path d="M581.2 54.5H564.6C562.1 54.5 560 56.6 560 59.1V62.7C560 63.2 560.5 63.7 561 63.7H584.8C585.3 63.7 585.8 63.2 585.8 62.7V59.1C585.8 56.6 583.7 54.5 581.2 54.5ZM583.8 61.7H562V59.1C562 57.7 563.2 56.5 564.6 56.5H581.2C582.6 56.5 583.8 57.7 583.8 59.1V61.7Z" fill="#0061DD"/>
<path d="M608 11.7H537.6C537 11.7 536.6 12.1 536.6 12.7V19C536.6 19.6 537 20 537.6 20H552.5V22.5C552.5 24.1 553.5 25.5 554.9 26.1L555.2 26.2V26.4V34.8C555.2 38.4 556.3 41.8 558.3 44.8C560.1 47.4 562.5 49.5 565.4 50.8L565.7 50.9V48.7L565 48.3C560.2 45.5 557.2 40.3 557.2 34.8V26.4H561.2V34.8C561.2 38.3 562.8 41.5 565.5 43.8L565.7 43.9L566.1 41.6L565.7 41.2C564.1 39.4 563.3 37.2 563.3 34.8V26.4H582.5V34.8C582.5 37.1 581.6 39.4 580.1 41.2L579.7 41.6L580.1 43.9L580.3 43.8C583 41.6 584.6 38.3 584.6 34.8V26.4H588.6V34.8C588.6 40.3 585.6 45.5 580.8 48.3L580.1 48.7V50.9L580.4 50.8C583.2 49.5 585.7 47.4 587.5 44.8C589.5 41.9 590.6 38.4 590.6 34.8V26.4V26.2L590.9 26.1C592.4 25.5 593.3 24.1 593.3 22.5V20H608.2C608.7 20 609.2 19.6 609.2 19V12.7C609 12.1 608.6 11.7 608 11.7ZM607 18H579.2C578.7 18 578.2 18.5 578.2 19C578.2 19.6 578.7 20 579.2 20H591.2V22.5C591.2 23.5 590.3 24.4 589.3 24.4H556.4C555.4 24.4 554.5 23.6 554.5 22.5V20H566.4C567 20 567.4 19.6 567.4 19C567.4 18.5 567 18 566.4 18H538.6V13.7H607V18Z" fill="#0061DD"/>
<path d="M504 81.7L502.4 77.3C501.6 75.3 499.6 73.9 497.2 73.9H492.7V73.2C492.7 71.8 491.8 70.5 490.4 70L490.3 69.9V33.1C490.3 31.7 489.4 30.4 488 29.9H487.9V22.6C487.9 19.9 486.1 17.5 483.4 16.9L461.9 12.1C461.7 12 461.4 12 461.1 12C458.9 12 457.2 13.8 457.2 15.9C457.2 17.4 458 18.7 459.4 19.4L474 26.6V29.9H473.9C472.5 30.4 471.6 31.7 471.6 33.1V36.4L448 27.5C447.6 27.3 447.2 27.3 446.7 27.3H435.2C433.3 27.3 431.8 28.8 431.8 30.7V40.3C431.8 40.9 432.3 41.3 432.8 41.3H444.8C445.4 41.3 445.8 40.8 445.8 40.3V36.5H446.4C446.7 36.5 447 36.6 447.2 36.8C447.4 37 470.1 52.7 471.6 53.8V70L471.5 70.1C470.2 70.6 469.2 71.9 469.2 73.3V74H443.5C441.2 74 439.1 75.4 438.3 77.4L436.7 81.8C436.6 82.1 436.6 82.4 436.8 82.7C437 83 437.3 83.1 437.6 83.1H503.2C503.5 83.1 503.8 82.9 504 82.7C504.1 82.4 504.1 82 504 81.7ZM460.2 17.6C459.6 17.3 459.2 16.6 459.2 15.9C459.2 14.9 460 14 461.1 14C461.2 14 461.4 14 461.5 14.1L483 18.9C484.7 19.3 485.9 20.8 485.9 22.6V25H475.2L460.2 17.6ZM486 27V29.8H476V27H486ZM473.6 33.1C473.6 32.3 474.2 31.7 475 31.7H487C487.8 31.7 488.4 32.3 488.4 33.1V69.8H473.6V33.1ZM443.7 39.3H433.7V36.5H443.7V39.3ZM448.4 35.2C447.8 34.8 447.1 34.5 446.4 34.5H433.8V30.7C433.8 29.9 434.4 29.3 435.2 29.3H446.7C446.9 29.3 447.1 29.3 447.2 29.4L471.5 38.6V51.3L448.4 35.2ZM471.2 73.3C471.2 72.5 471.8 71.9 472.6 71.9H489.4C490.2 71.9 490.8 72.5 490.8 73.3V74H471.2V73.3ZM438.9 81.1L440.1 78C440.6 76.7 441.9 75.8 443.5 75.8H497.3C498.8 75.8 500.2 76.7 500.7 78L501.9 81.1H438.9Z" fill="#0061DD"/>
<path d="M444.5 53.6L439.7 45.5C439.5 45.2 439.2 45 438.8 45C438.6 45 438.4 45 438.3 45.1C438.2 45.2 438 45.3 437.9 45.5L433.1 53.6C431.2 56.7 432.2 60.8 435.4 62.7C436.4 63.3 437.6 63.6 438.8 63.6C441.1 63.6 443.3 62.4 444.5 60.4C445.7 58.3 445.7 55.7 444.5 53.6ZM443.2 58.1C442.9 59.3 442.1 60.3 441.1 60.9C440.4 61.3 439.6 61.5 438.8 61.5C437.6 61.5 436.4 61 435.6 60.2C434.1 58.7 433.8 56.4 434.9 54.6L438.8 48L442.7 54.6C443.3 55.7 443.5 56.9 443.2 58.1Z" fill="#FF8303"/>
<path d="M483.5 16.9L462 12.1C461.7 12 461.4 12 461.1 12C458.9 12 457.2 13.8 457.2 15.9C457.2 17.4 458 18.7 459.4 19.4L474 26.6V29.9L476 29.7V26.9H486V29.7L488 29.9V22.6C488 19.8 486.1 17.5 483.5 16.9ZM486 24.9H475.3L460.3 17.5C459.7 17.2 459.3 16.5 459.3 15.8C459.3 14.8 460.1 13.9 461.2 13.9C461.3 13.9 461.5 13.9 461.6 14L483.1 18.8C484.8 19.2 486 20.7 486 22.5V24.9Z" fill="#FF8303"/>
<path d="M362.6 16.4C362.6 16.8 362.4 17 362.1 17.4C361.6 17.9 361.2 18.6 361.1 19.3V19.5H363.1V19.4C363.2 19.2 363.3 19 363.6 18.8C364.3 18.2 364.7 17.3 364.7 16.5C364.7 15.6 364.3 14.7 363.6 14.1C363.2 13.7 363.1 13.5 363.1 13.1C363.1 12.7 363.3 12.5 363.6 12.1C364.1 11.6 364.5 10.9 364.6 10.2V10H362.6V10.1C362.5 10.3 362.4 10.5 362.1 10.7C361.4 11.3 361 12.1 361 13C361 13.9 361.4 14.8 362.1 15.4C362.4 15.8 362.6 16 362.6 16.4Z" fill="#FF8303"/>
<path d="M371.4 16.4C371.4 16.8 371.2 17 370.9 17.4C370.4 17.9 370 18.6 369.9 19.3V19.5H371.9V19.4C372 19.2 372.1 19 372.4 18.8C373.1 18.2 373.5 17.3 373.5 16.5C373.5 15.6 373.1 14.7 372.4 14.1C372 13.7 371.9 13.5 371.9 13.1C371.9 12.7 372.1 12.5 372.4 12.1C372.9 11.6 373.3 10.9 373.4 10.2V10H371.4V10.1C371.3 10.3 371.2 10.5 370.9 10.7C370.2 11.3 369.8 12.1 369.8 13C369.8 13.9 370.2 14.8 370.9 15.4C371.2 15.8 371.4 16 371.4 16.4Z" fill="#FF8303"/>
<path d="M380.2 16.4C380.2 16.8 380 17 379.7 17.4C379.2 17.9 378.8 18.6 378.7 19.3V19.5H380.7V19.4C380.8 19.2 380.9 19 381.2 18.8C381.9 18.2 382.3 17.3 382.3 16.5C382.3 15.6 381.9 14.7 381.2 14.1C380.8 13.7 380.7 13.5 380.7 13.1C380.7 12.7 380.9 12.5 381.2 12.1C381.7 11.6 382.1 10.9 382.2 10.2V10H380.2V10.1C380.1 10.3 380 10.5 379.7 10.7C379 11.3 378.6 12.2 378.6 13C378.6 13.9 379 14.8 379.7 15.4C380.1 15.8 380.2 16 380.2 16.4Z" fill="#FF8303"/>
<path d="M345 16.4C345 16.8 344.8 17 344.5 17.4C344 17.9 343.6 18.6 343.5 19.3V19.5H345.5V19.4C345.6 19.2 345.7 19 346 18.8C346.7 18.2 347.1 17.3 347.1 16.5C347.1 15.6 346.7 14.7 346 14.1C345.6 13.7 345.5 13.5 345.5 13.1C345.5 12.7 345.7 12.5 346 12.1C346.5 11.6 346.9 10.9 347 10.2V10H345V10.1C344.9 10.3 344.8 10.5 344.5 10.7C343.8 11.3 343.4 12.1 343.4 13C343.4 13.9 343.8 14.8 344.5 15.4C344.8 15.8 345 16 345 16.4Z" fill="#FF8303"/>
<path d="M353.8 16.4C353.8 16.8 353.6 17 353.3 17.4C352.8 17.9 352.4 18.6 352.3 19.3V19.5H354.3V19.4C354.4 19.2 354.5 19 354.8 18.8C355.5 18.2 355.9 17.3 355.9 16.5C355.9 15.6 355.5 14.7 354.8 14.1C354.4 13.7 354.3 13.5 354.3 13.1C354.3 12.7 354.5 12.5 354.8 12.1C355.3 11.6 355.7 10.9 355.8 10.2V10H353.8V10.1C353.7 10.3 353.6 10.5 353.3 10.7C352.6 11.3 352.2 12.2 352.2 13C352.2 13.9 352.6 14.8 353.3 15.4C353.6 15.8 353.8 16 353.8 16.4Z" fill="#FF8303"/>
<path d="M399.3 56C399.9 56 400.3 55.6 400.3 55V45C400.3 44.5 399.9 44 399.3 44H392.7V26.1C392.7 24.2 391.1 22.6 389.2 22.6C387.3 22.6 385.7 24.2 385.7 26.1V27.6H380.1V26.1C380.1 24.2 378.5 22.6 376.6 22.6C374.7 22.6 373.1 24.2 373.1 26.1V27.6H367.6V27.3C367.6 24.7 365.5 22.5 362.8 22.5C360.2 22.5 358 24.6 358 27.3V27.6H352.4V26.1C352.4 24.2 350.8 22.6 348.9 22.6C347 22.6 345.4 24.2 345.4 26.1V27.6H339.8V26.1C339.8 24.2 338.2 22.6 336.3 22.6C334.4 22.6 332.8 24.2 332.8 26.1V44H326.2C325.6 44 325.2 44.4 325.2 45V55.1C325.2 55.6 325.6 56.1 326.2 56.1H327.7V83.1H325.2V85.1H332.2V83.1H329.7V56H332.8V73.9C332.8 75.8 334.4 77.4 336.3 77.4C338.2 77.4 339.8 75.8 339.8 73.9V72.4H345.4V73.9C345.4 75.8 347 77.4 348.9 77.4C350.8 77.4 352.4 75.8 352.4 73.9V72.4H358V72.7C358 75.3 360.1 77.5 362.8 77.5C365.4 77.5 367.6 75.4 367.6 72.7V72.4H373.2V73.9C373.2 75.8 374.8 77.4 376.7 77.4C378.6 77.4 380.2 75.8 380.2 73.9V72.4H385.8V73.9C385.8 75.8 387.4 77.4 389.3 77.4C391.2 77.4 392.8 75.8 392.8 73.9V56H395.9V83H393.4V85H400.4V83H397.9V56H399.3ZM332.9 54.1H327.3V46H332.9V54.1ZM337.9 73.9C337.9 74.7 337.2 75.4 336.4 75.4C335.6 75.4 334.9 74.7 334.9 73.9V26.1C334.9 25.2 335.6 24.6 336.4 24.6C337.2 24.6 337.9 25.3 337.9 26.1V73.9ZM345.4 70.4H339.8V29.6H345.4V70.4ZM350.5 73.9C350.5 74.7 349.8 75.4 349 75.4C348.2 75.4 347.5 74.7 347.5 73.9V26.1C347.5 25.2 348.2 24.6 349 24.6C349.8 24.6 350.5 25.3 350.5 26.1V73.9ZM358 70.4H352.4V29.6H358V70.4ZM365.6 72.7C365.6 74.2 364.3 75.5 362.8 75.5C361.3 75.5 360 74.2 360 72.7V27.4C360 25.9 361.3 24.6 362.8 24.6C364.3 24.6 365.6 25.9 365.6 27.4V72.7ZM373.1 70.4H367.6V29.6H373.2V70.4H373.1ZM378.2 73.9C378.2 74.7 377.5 75.4 376.7 75.4C375.9 75.4 375.2 74.7 375.2 73.9V26.1C375.2 25.2 375.9 24.6 376.7 24.6C377.5 24.6 378.2 25.3 378.2 26.1V73.9ZM385.7 70.4H380.1V29.6H385.7V70.4ZM390.8 73.9C390.8 74.7 390.1 75.4 389.3 75.4C388.5 75.4 387.8 74.7 387.8 73.9V26.1C387.8 25.2 388.5 24.6 389.3 24.6C390.1 24.6 390.8 25.3 390.8 26.1V73.9ZM392.7 54.1V46H398.3V54.1H392.7Z" fill="#0061DD"/>
<path d="M389.2 22.6C387.3 22.6 385.7 24.2 385.7 26.1V73.9C385.7 75.8 387.3 77.4 389.2 77.4C391.1 77.4 392.7 75.8 392.7 73.9V26.1C392.7 24.2 391.2 22.6 389.2 22.6ZM390.8 73.9C390.8 74.7 390.1 75.4 389.3 75.4C388.5 75.4 387.8 74.7 387.8 73.9V26.1C387.8 25.2 388.5 24.6 389.3 24.6C390.1 24.6 390.8 25.3 390.8 26.1V73.9ZM362.8 22.6C360.2 22.6 358 24.7 358 27.4V72.7C358 75.3 360.1 77.5 362.8 77.5C365.4 77.5 367.6 75.4 367.6 72.7V27.4C367.6 24.7 365.4 22.6 362.8 22.6ZM365.6 72.7C365.6 74.2 364.3 75.5 362.8 75.5C361.3 75.5 360 74.2 360 72.7V27.4C360 25.9 361.3 24.6 362.8 24.6C364.3 24.6 365.6 25.9 365.6 27.4V72.7ZM349 22.6C347.1 22.6 345.5 24.2 345.5 26.1V73.9C345.5 75.8 347.1 77.4 349 77.4C350.9 77.4 352.5 75.8 352.5 73.9V26.1C352.5 24.2 350.9 22.6 349 22.6ZM350.5 73.9C350.5 74.7 349.8 75.4 349 75.4C348.2 75.4 347.5 74.7 347.5 73.9V26.1C347.5 25.2 348.2 24.6 349 24.6C349.8 24.6 350.5 25.3 350.5 26.1V73.9ZM376.6 22.6C374.7 22.6 373.1 24.2 373.1 26.1V73.9C373.1 75.8 374.7 77.4 376.6 77.4C378.5 77.4 380.1 75.8 380.1 73.9V26.1C380.2 24.2 378.6 22.6 376.6 22.6ZM378.2 73.9C378.2 74.7 377.5 75.4 376.7 75.4C375.9 75.4 375.2 74.7 375.2 73.9V26.1C375.2 25.2 375.9 24.6 376.7 24.6C377.5 24.6 378.2 25.3 378.2 26.1V73.9ZM336.4 22.6C334.5 22.6 332.9 24.2 332.9 26.1V73.9C332.9 75.8 334.5 77.4 336.4 77.4C338.3 77.4 339.9 75.8 339.9 73.9V26.1C339.9 24.2 338.3 22.6 336.4 22.6ZM337.9 73.9C337.9 74.7 337.2 75.4 336.4 75.4C335.6 75.4 334.9 74.7 334.9 73.9V26.1C334.9 25.2 335.6 24.6 336.4 24.6C337.2 24.6 337.9 25.3 337.9 26.1V73.9Z" fill="#FF8303"/>
<path d="M257.7 78.4C240.7 78.4 226.8 64.6 226.8 47.5C226.8 30.5 240.6 16.6 257.7 16.6C274.7 16.6 288.6 30.4 288.6 47.5C288.5 64.5 274.7 78.4 257.7 78.4ZM257.7 18.6C241.8 18.6 228.8 31.6 228.8 47.5C228.8 63.4 241.8 76.4 257.7 76.4C273.6 76.4 286.6 63.4 286.6 47.5C286.5 31.6 273.6 18.6 257.7 18.6Z" fill="#0061DD"/>
<path d="M262.6 72.3C262.1 72.3 261.6 71.9 261.6 71.3V63.2H253.7V71.3C253.7 71.8 253.3 72.3 252.7 72.3C252.2 72.3 251.7 71.9 251.7 71.3V63.2H243.9V66.8C243.9 67.3 243.5 67.8 242.9 67.8C242.3 67.8 241.9 67.4 241.9 66.8V63.2H238.3C237.8 63.2 237.3 62.8 237.3 62.2C237.3 61.6 237.7 61.2 238.3 61.2H241.9V53.4H233.8C233.3 53.4 232.8 53 232.8 52.4C232.8 51.9 233.2 51.4 233.8 51.4H241.9V43.6H233.8C233.3 43.6 232.8 43.2 232.8 42.6C232.8 42 233.2 41.6 233.8 41.6H241.9V33.8H238.3C237.8 33.8 237.3 33.4 237.3 32.8C237.3 32.2 237.7 31.8 238.3 31.8H241.9V28.2C241.9 27.7 242.3 27.2 242.9 27.2C243.5 27.2 243.9 27.6 243.9 28.2V31.8H251.7V23.7C251.7 23.2 252.1 22.7 252.7 22.7C253.3 22.7 253.7 23.1 253.7 23.7V31.8H261.5V23.7C261.5 23.2 261.9 22.7 262.5 22.7C263.1 22.7 263.5 23.1 263.5 23.7V31.8H271.3V28.2C271.3 27.7 271.7 27.2 272.3 27.2C272.8 27.2 273.3 27.6 273.3 28.2V31.8H276.9C277.4 31.8 277.9 32.2 277.9 32.8C277.9 33.4 277.5 33.8 276.9 33.8H273.3V41.6H281.4C281.9 41.6 282.4 42 282.4 42.6C282.4 43.2 282 43.6 281.4 43.6H273.3V51.4H281.4C281.9 51.4 282.4 51.8 282.4 52.4C282.4 52.9 282 53.4 281.4 53.4H273.3V61.2H276.9C277.4 61.2 277.9 61.6 277.9 62.2C277.9 62.8 277.5 63.2 276.9 63.2H273.3V66.8C273.3 67.3 272.9 67.8 272.3 67.8C271.8 67.8 271.3 67.4 271.3 66.8V63.2H263.5V71.3C263.6 71.9 263.1 72.3 262.6 72.3ZM263.6 61.2H271.4V53.4H263.6V61.2ZM253.7 61.2H261.5V53.4H253.7V61.2ZM243.9 61.2H251.7V53.4H243.9V61.2ZM263.6 51.4H271.4V43.6H263.6V51.4ZM253.7 51.4H261.5V43.6H253.7V51.4ZM243.9 51.4H251.7V43.6H243.9V51.4ZM263.6 41.6H271.4V33.8H263.6V41.6ZM253.7 41.6H261.5V33.8H253.7V41.6ZM243.9 41.6H251.7V33.8H243.9V41.6Z" fill="#FF8303"/>
<path d="M257.7 84.1C249.9 84.1 242.4 81.7 236.1 77L235.8 76.8L232.8 79.8C232.6 80 232.4 80.1 232.1 80.1C231.8 80.1 231.6 80 231.4 79.8L225.4 73.8C225.2 73.6 225.1 73.4 225.1 73.1C225.1 72.8 225.2 72.6 225.4 72.4L228.4 69.4L228.2 69.1C223.6 62.8 221.1 55.3 221.1 47.5C221.1 39.7 223.5 32.2 228.2 25.9L228.4 25.6L225.4 22.6C225.2 22.4 225.1 22.2 225.1 21.9C225.1 21.6 225.2 21.4 225.4 21.2L231.4 15.2C231.6 15 231.8 14.9 232.1 14.9C232.4 14.9 232.6 15 232.8 15.2L235.8 18.2L236.1 18C242.4 13.4 249.9 10.9 257.7 10.9C265.5 10.9 273 13.3 279.3 18L279.6 18.2L282.6 15.2C282.8 15 283 14.9 283.3 14.9C283.6 14.9 283.8 15 284 15.2L290 21.2C290.2 21.4 290.3 21.6 290.3 21.9C290.3 22.2 290.2 22.4 290 22.6L287 25.6L287.2 25.9C291.8 32.2 294.3 39.7 294.3 47.5C294.3 55.3 291.9 62.8 287.2 69.1L287 69.4L290 72.4C290.2 72.6 290.3 72.8 290.3 73.1C290.3 73.4 290.2 73.6 290 73.8L284 79.8C283.8 80 283.6 80.1 283.3 80.1C283 80.1 282.8 80 282.6 79.8L279.6 76.8L279.3 77C272.9 81.7 265.5 84.1 257.7 84.1ZM257.7 12.9C238.6 12.9 223.1 28.4 223.1 47.5C223.1 66.6 238.6 82.1 257.7 82.1C276.8 82.1 292.3 66.6 292.3 47.5C292.3 28.4 276.8 12.9 257.7 12.9ZM285.5 71.3C284.3 72.7 282.9 74.1 281.5 75.3L281.1 75.6L283.2 77.7L287.8 73.1L285.7 71L285.5 71.3ZM227.4 73.1L232 77.7L234.1 75.6L233.7 75.3C232.3 74.1 230.9 72.7 229.7 71.3L229.4 70.9L227.4 73.1ZM227.4 21.9L229.5 24L229.8 23.6C231 22.2 232.4 20.8 233.8 19.6L234.2 19.3L232.1 17.2L227.4 21.9ZM281.1 19.4L281.5 19.7C282.9 20.9 284.3 22.3 285.5 23.7L285.8 24.1L287.9 22L283.3 17.4L281.1 19.4Z" fill="#0061DD"/>
<path d="M185.9 61.8H180.2V58C180.2 56.3 178.8 54.8 177 54.8H164.8C164.3 54.8 163.8 55.2 163.8 55.8C163.8 56.3 164.2 56.8 164.8 56.8H177C177.7 56.8 178.2 57.4 178.2 58V61.9H153.6V57.7C153.6 57.2 153.2 56.7 152.6 56.7C152 56.7 151.6 57.1 151.6 57.7V61.9H127V58C127 57.3 127.6 56.8 128.2 56.8H140.4C140.9 56.8 141.4 56.4 141.4 55.8C141.4 55.3 141 54.8 140.4 54.8H128.2C126.5 54.8 125 56.2 125 58V61.9H119.3C116.9 61.9 115 63.8 115 66.2C115 68.6 116.9 70.5 119.3 70.5H185.7C188.1 70.5 190 68.6 190 66.2C190.2 63.8 188.3 61.8 185.9 61.8ZM185.9 68.5H119.5C118.2 68.5 117.1 67.4 117.1 66.1C117.1 64.8 118.2 63.8 119.5 63.8H185.9C187.2 63.8 188.2 64.9 188.2 66.1C188.3 67.4 187.2 68.5 185.9 68.5Z" fill="#0061DD"/>
<path d="M166.5 31.8C166.1 30.9 165.7 30.1 165.1 29.2C164.6 28.3 164.1 27.5 163.6 26.6C160.5 21.4 157.5 16.5 158.7 11.2C158.8 10.8 158.7 10.5 158.4 10.2C158.2 10.1 158 10 157.8 10C157.7 10 157.6 10 157.4 10.1C152.5 12 149.4 16.6 148.3 20L148.1 20.7L147.6 20.1C145 17 141.8 16.6 141.6 16.6H141.5C141.2 16.6 140.9 16.8 140.7 17C140.5 17.3 140.4 17.6 140.6 18C140.6 18.1 142.9 23.7 140 29.7C139.7 30.2 139.4 30.7 139.1 31.3V31.4C138.2 33.4 137.7 35.5 137.7 37.7C137.7 45 143 51.3 150.2 52.5C150.8 52.6 152.1 52.7 152.3 52.7H152.7C161 52.7 167.7 46 167.7 37.7C167.7 35.6 167.3 33.7 166.5 31.8ZM152.3 50.7C151.7 50.7 151.1 50.6 150.6 50.5C147.6 49.8 145.5 47.1 145.5 44C145.5 40.1 147.7 38.1 149.8 36.1C150.8 35.2 151.9 34.2 152.5 33.1L152.8 32.6L153.2 33C157.1 36.5 158.8 41 158.8 44C158.8 47.7 156 50.6 152.3 50.7ZM160.6 48.1L160 47.6C160.5 46.5 160.7 45.3 160.7 44.1C160.7 39.3 157.4 33.6 152.7 30.3C152.5 30.2 152.3 30.1 152.1 30.1C151.9 30.1 151.8 30.1 151.6 30.2C151.3 30.4 151.1 30.7 151.1 31.1C151.1 32.4 150.1 33.3 148.5 34.8C146.4 36.7 143.5 39.3 143.5 44.1C143.5 44.7 143.6 45.4 143.7 46L144.1 47.6L143 46.4C140.8 44 139.7 40.9 139.7 37.7C139.7 35.8 140.1 33.9 141 32.1C141.2 31.6 141.5 31.1 141.8 30.6C141.8 30.6 141.8 30.5 141.9 30.5C143.9 26.3 143.8 22.4 143.3 19.8L143 18.9L143.8 19.4C145.1 20.1 146.8 21.6 147.9 24.5C148 24.9 148.4 25.1 148.8 25.1C148.9 25.1 149 25.1 149.1 25.1C149.6 24.9 149.9 24.4 149.7 23.9C149.1 21.7 151.4 16 155.8 13.1L156.5 12.6V13.4C156.4 18.5 159.2 23.1 161.9 27.6C162.4 28.4 162.9 29.3 163.5 30.2C164 30.9 164.4 31.7 164.7 32.5C165.4 34.1 165.7 35.8 165.7 37.6C165.8 41.8 163.9 45.6 160.6 48.1Z" fill="#FF8303"/>
<path d="M127.9 85C125.3 85 123.2 82.9 123.2 80.3C123.2 77.7 125.3 75.6 127.9 75.6C130.5 75.6 132.6 77.7 132.6 80.3C132.7 82.9 130.6 85 127.9 85ZM127.9 77.5C126.4 77.5 125.2 78.7 125.2 80.2C125.2 81.7 126.4 82.9 127.9 82.9C129.4 82.9 130.6 81.7 130.6 80.2C130.6 78.7 129.4 77.5 127.9 77.5Z" fill="#FF8303"/>
<path d="M144.5 85C141.9 85 139.8 82.9 139.8 80.3C139.8 77.7 141.9 75.6 144.5 75.6C147.1 75.6 149.2 77.7 149.2 80.3C149.2 82.9 147.1 85 144.5 85ZM144.5 77.5C143 77.5 141.8 78.7 141.8 80.2C141.8 81.7 143 82.9 144.5 82.9C146 82.9 147.2 81.7 147.2 80.2C147.2 78.7 146 77.5 144.5 77.5Z" fill="#0061DD"/>
<path d="M161 85C158.4 85 156.3 82.9 156.3 80.3C156.3 77.7 158.4 75.6 161 75.6C163.6 75.6 165.7 77.7 165.7 80.3C165.7 82.9 163.6 85 161 85ZM161 77.5C159.5 77.5 158.3 78.7 158.3 80.2C158.3 81.7 159.5 82.9 161 82.9C162.5 82.9 163.7 81.7 163.7 80.2C163.7 78.7 162.5 77.5 161 77.5Z" fill="#FF8303"/>
<path d="M177.5 85C174.9 85 172.8 82.9 172.8 80.3C172.8 77.7 174.9 75.6 177.5 75.6C180.1 75.6 182.2 77.7 182.2 80.3C182.3 82.9 180.1 85 177.5 85ZM177.5 77.5C176 77.5 174.8 78.7 174.8 80.2C174.8 81.7 176 82.9 177.5 82.9C179 82.9 180.2 81.7 180.2 80.2C180.2 78.7 179 77.5 177.5 77.5Z" fill="#0061DD"/>
<path d="M160.3 41.1C160.3 41 160.2 40.8 160.2 40.7C160.2 40.8 160.3 40.9 160.3 41.1Z" fill="#0061DD"/>
<path d="M30.4 69.2H49.9C50.4 69.2 50.8 68.8 50.8 68.3V58.6C50.8 58.1 50.4 57.6 49.9 57.6H30.4C29.9 57.6 29.5 58 29.5 58.6V68.3C29.5 68.7 29.9 69.2 30.4 69.2ZM49 59.4V67.2H31.4V59.4H49Z" fill="#FF8303"/>
<path d="M74.6 29.5C74.5 29.5 74.4 29.5 74.4 29.5H69.3V28C69.3 23.8 66.2 20.3 62 19.8H61.8L61.7 19.6C61.2 18.2 60 17.3 58.5 17.3C58.1 17.3 57.8 17.3 57.5 17.5C56.5 17.8 55.7 18.6 55.4 19.6L55.3 19.8H49.7V13.4C49.7 11.5 48.2 10 46.3 10H34.1C32.2 10 30.7 11.5 30.7 13.4V19.8H25.2L25.1 19.6C24.6 18.2 23.4 17.3 21.9 17.3C21.5 17.3 21.1 17.4 20.8 17.5C19.8 17.8 19 18.6 18.7 19.6V19.8H18.6C14.5 20.3 11.3 23.8 11.3 28V32.9C11.3 37.1 14.4 40.6 18.6 41.1H18.7V41.3C19.2 42.7 20.4 43.6 21.9 43.6C22.2 43.6 22.6 43.6 22.9 43.4C23.9 43.1 24.7 42.3 25 41.3L25.1 41.1H27V46.5H18.3C13.8 46.5 10 50.2 10 54.8V71.8C10 76.3 13.7 80.1 18.3 80.1H19.8V84C19.8 84.5 20.2 84.9 20.8 84.9H59.8C60.3 84.9 60.8 84.5 60.8 84V80.1H62.3C66.9 80.1 70.6 76.4 70.6 71.8V71.5H74.5C75 71.5 75.5 71.1 75.5 70.5V64.1H75.7C80.9 63.6 85 59 85 53.6V40.2C85 34.4 80.3 29.6 74.6 29.5ZM18.5 39.2L18.2 39.1C15.2 38.5 13.1 35.9 13.1 32.9V28C13.1 25 15.2 22.4 18.2 21.8L18.5 21.7V39.2ZM23.4 40.2C23.4 41 22.7 41.7 21.9 41.7C21.1 41.7 20.4 41 20.4 40.2V20.7C20.4 19.9 21.1 19.2 21.9 19.2C22.7 19.2 23.4 19.9 23.4 20.7V40.2ZM17.3 78.2L17 78.1C14.1 77.5 11.9 74.9 11.9 71.9V54.9C11.9 51.9 14 49.3 17 48.7L17.3 48.6V78.2ZM61.9 21.7L62.2 21.8C65.1 22.4 67.3 25 67.3 28V32.9C67.3 35.9 65.2 38.5 62.2 39.1L61.9 39.2V21.7ZM57 20.7C57 19.9 57.7 19.2 58.5 19.2C59.3 19.2 60 19.9 60 20.7V40.2C60 41 59.3 41.7 58.5 41.7C57.7 41.7 57 41 57 40.2V20.7ZM32.6 13.4C32.6 12.6 33.3 11.9 34.1 11.9H46.3C47.1 11.9 47.8 12.6 47.8 13.4V19.8H32.6V13.4ZM25.3 21.6H55.1V24.6H25.3V21.6ZM25.3 26.5H55.1V29.5H25.3V26.5ZM25.3 31.4H55.1V34.4H25.3V31.4ZM25.3 39.2V36.2H55.1V39.2H25.3ZM51.4 41.1V46.5H29V41.1H51.4ZM58.7 83.1H21.7V80.1H58.8V83.1H58.7ZM61.2 78.2H19.2V48.5H61.2V78.2ZM68.5 71.9C68.5 74.9 66.4 77.5 63.4 78.1L63.1 78.2V48.5L63.4 48.6C66.4 49.2 68.5 51.8 68.5 54.8V71.9ZM73.4 69.7H70.4V57H73.4V69.7ZM83.1 53.6C83.1 57.9 79.9 61.7 75.6 62.3H75.3V56C75.3 55.5 74.9 55.1 74.3 55.1H70.4V54.8C70.4 50.2 66.7 46.5 62.1 46.5H53.3V41.1H55.2L55.3 41.3C55.8 42.7 57.1 43.6 58.5 43.6C58.9 43.6 59.3 43.5 59.6 43.4C60.6 43.1 61.4 42.3 61.7 41.3L61.8 41.1H62C66.1 40.6 69.3 37.1 69.3 32.9V31.4H74.4C74.5 31.4 74.6 31.4 74.6 31.4C79.3 31.5 83.1 35.4 83.1 40.2V53.6Z" fill="#0061DD"/>
<path d="M55.1 24.6H25.3V26.5H55.1V24.6Z" fill="#FF8303"/>
<path d="M55.1 29.5H25.3V31.4H55.1V29.5Z" fill="#FF8303"/>
<path d="M55.1 34.4H25.3V36.3H55.1V34.4Z" fill="#FF8303"/>
<path d="M13.1 28V32.9C13.1 35.9 15.2 38.5 18.2 39.1L18.5 39.2V41.1C14.4 40.6 11.2 37.1 11.2 32.9V28C11.2 23.8 14.3 20.3 18.5 19.8V21.7L18.2 21.8C15.3 22.4 13.1 25 13.1 28Z" fill="#FF8303"/>
<path d="M69.2 29.5V31.4V32.9C69.2 37.1 66.1 40.6 61.9 41.1V39.2L62.2 39.1C65.1 38.5 67.3 35.9 67.3 32.9V28C67.3 25 65.2 22.4 62.2 21.8L61.9 21.7V19.8C66 20.3 69.2 23.8 69.2 28V29.5Z" fill="#FF8303"/>
</svg>
